<?xml version="1.0" encoding="utf-8"?>
<svg version="1.1" xmlns="http://www.w3.org/2000/svg" viewBox="0 0 380 360">
<style type="text/css">
	.st0{opacity:0.5;fill:#3A2D72}
	.st1{opacity:0.13;fill:#3A2D72}
	.st2{opacity:0.3;fill:#3A2D72}
	.st3{opacity:0.93;fill:#C45814}
	.st4{opacity:0.8;fill:#7AB6BE}
	.st5{opacity:0.8;fill:#9CCD9A}
	.st6{opacity:0.8;fill:#84B49F}
	.st7{fill:none;stroke:#1D1D1B;stroke-width:1.125;stroke-miterlimit:10;}
	.st8{fill:#1D1D1B;}
	.st9{fill:#3A2D72;}
	.st10{fill:#FFFFFF;}
</style>
<polygon class="st0" points="296.9,175.6 334.2,111.7 283.7,111.7 283.7,175.6 "/>
<polygon class="st1" points="227.1,295.1 189.8,359 152.5,295.1 "/>
<polygon class="st2" points="280.6,203.4 243.3,267.3 136.3,267.3 99,203.4 "/>
<rect x="261.5" y="111.7" class="st3" width="16" height="63.9"/>
<rect x="219.1" y="111.7" class="st4" width="36.1" height="63.9"/>
<rect x="151.1" y="111.7" class="st5" width="61.5" height="63.9"/>
<rect x="115.2" y="111.7" class="st6" width="29.8" height="63.9"/>
<polygon class="st0" points="82.7,175.6 109.1,175.6 109.1,111.7 45.4,111.7 "/>
<line class="st7" x1="130" y1="68.7" x2="130" y2="108.5"/>
<polygon class="st8" points="126.4,101.9 127.5,101.5 130,108.4 132.5,101.5 133.6,101.9 130,111.7 "/>
<line class="st7" x1="237" y1="69.1" x2="237" y2="108.5"/>
<polygon class="st8" points="233.4,101.9 234.5,101.5 237,108.4 239.5,101.5 240.6,101.9 237,111.7 "/>
<path class="st8" d="M183.8,323.5h-2.9l-0.5,2.1h-2.9l3.2-10.2h3.4l3.2,10.2h-3L183.8,323.5z M183.3,321.5l-1-4.2l-1,4.2H183.3z"/>
<path class="st8" d="M196.4,318.7c0,2.4-1.8,3.5-4.3,3.5H191v3.3h-2.8v-10.2h3.7C194.7,315.3,196.4,316.5,196.4,318.7z M193.5,318.7
	c0-0.9-0.6-1.4-1.7-1.4H191v3h0.9C192.9,320.3,193.5,319.8,193.5,318.7z"/>
<path class="st8" d="M200.8,325.6H198v-10.2h2.8V325.6z"/>
<path class="st8" d="M166.6,272.8l-1.9,13.3h-1.4l0-1.6c-0.7,1.1-1.6,1.8-2.9,1.8c-2,0-3-1.5-3-3.8c0-2.5,1.2-6.2,4.4-6.2
	c1.1,0,1.9,0.5,2.4,1.2l0.7-5L166.6,272.8z M159.1,282.7c0,1.6,0.6,2.3,1.6,2.3c1.2,0,2-0.9,2.8-2.2l0.6-3.9c-0.5-0.7-1.1-1.1-2-1.1
	C159.8,277.7,159.1,280.8,159.1,282.7z"/>
<path class="st8" d="M169.7,282.6c0,1.7,0.8,2.4,2,2.4c0.9,0,1.7-0.3,2.5-0.9l0.7,1.1c-1,0.7-2.1,1.1-3.4,1.1
	c-2.3,0-3.6-1.5-3.6-3.9c0-2.6,1.3-6.1,4.9-6.1c2,0,3,1.1,3,2.4C175.9,281.5,173,282.2,169.7,282.6z M174.1,278.9
	c0-0.5-0.3-1.1-1.3-1.1c-2,0-2.8,1.9-3,3.6C172.5,281,174.1,280.5,174.1,278.9z"/>
<path class="st8" d="M184.5,286.1h-1.7l1.2-8.2h-3.6l-1.1,7.7c-0.4,2.7-1.4,3.5-3.5,4.4l-0.5-1.2c1.3-0.6,2.1-1.1,2.4-3.1l1.1-7.7
	h-1.7l0.2-1.3h1.7l0.2-1.4c0.2-1.6,1.4-2.7,3.5-2.7c1.1,0,1.9,0.3,2.6,0.8l-0.6,1.1c-0.6-0.4-1.3-0.6-1.9-0.6
	c-1.2,0-1.8,0.5-1.9,1.4l-0.2,1.3h5.3L184.5,286.1z"/>
<path class="st8" d="M196,279.5l-0.9,6.7h-1.6l0.9-6.6c0.2-1.3-0.3-1.7-1-1.7c-1.2,0-2.3,1.3-3,2.6l-0.8,5.7h-1.6l1.3-9.5h1.4
	l-0.1,1.9c0.9-1.2,1.9-2.1,3.3-2.1C195.4,276.4,196.3,277.6,196,279.5z"/>
<path class="st8" d="M200,286.1h-1.6l1.3-9.5h1.6L200,286.1z M202.1,273.3c-0.1,0.6-0.6,1-1.2,1c-0.7,0-1.1-0.5-1-1.2
	c0.1-0.6,0.6-1,1.2-1C201.8,272.1,202.2,272.6,202.1,273.3z"/>
<path class="st8" d="M211.5,279.5l-0.9,6.7h-1.6l0.9-6.6c0.2-1.3-0.3-1.7-1-1.7c-1.2,0-2.3,1.3-3,2.6l-0.8,5.7h-1.6l1.3-9.5h1.4
	l-0.1,1.9c0.9-1.2,1.9-2.1,3.3-2.1C210.8,276.4,211.7,277.6,211.5,279.5z"/>
<path class="st8" d="M222.2,277.2l-1.3,8.7c-0.5,3.1-2.1,4.1-4.3,4.1c-1.1,0-2.4-0.4-3.3-0.9l0.6-1.3c0.6,0.3,1.6,0.8,2.6,0.8
	c1.3,0,2.5-0.4,2.8-2.7l0.2-1.2c-0.7,0.9-1.7,1.4-2.7,1.4c-2,0-3.1-1.4-3.1-3.6c0-2.8,1.4-6.1,5.1-6.1
	C219.9,276.4,220.9,276.6,222.2,277.2z M215.5,282.6c0,1.6,0.7,2.2,1.6,2.2c1,0,1.8-0.8,2.6-1.8l0.8-5c-0.5-0.2-0.9-0.3-1.6-0.3
	C216.4,277.7,215.5,280.3,215.5,282.6z"/>
<path class="st8" d="M168,188.7c0,2.7-1.3,6.2-5,6.2c-0.7,0-1.2-0.1-1.8-0.3l-0.5,3.8l-1.6,0.2l1.9-13.4h1.4l0,1.2
	c1-1.1,1.9-1.4,2.9-1.4C166.9,185,168,186.3,168,188.7z M162.1,187.7l-0.8,5.6c0.6,0.2,1,0.3,1.7,0.3c2.4,0,3.2-2.9,3.2-5
	c0-1.7-0.7-2.3-1.7-2.3S162.8,186.9,162.1,187.7z"/>
<path class="st8" d="M176.3,185.1l-0.5,1.6c-0.3-0.1-0.5-0.1-0.8-0.1c-1.2,0-2,1.1-2.7,3l-0.7,5H170l1.3-9.5h1.4l-0.1,2
	c0.7-1.5,1.7-2.2,2.8-2.2C175.7,185,176,185,176.3,185.1z"/>
<path class="st8" d="M185.1,188.9c0,2.3-1.2,6-4.9,6c-2.4,0-3.6-1.5-3.6-3.9c0-2.3,1.2-6,4.9-6C183.8,185,185.1,186.5,185.1,188.9z
	 M178.3,191.1c0,1.7,0.7,2.4,2,2.4c2.5,0,3.1-3,3.1-4.8c0-1.7-0.7-2.4-1.9-2.4C179,186.3,178.3,189.3,178.3,191.1z"/>
<path class="st8" d="M190.4,194.7h-2l-1.9-9.5h1.8l1.3,8l3.5-8h1.8L190.4,194.7z"/>
<path class="st8" d="M197.1,194.7h-1.6l1.3-9.5h1.6L197.1,194.7z M199.2,181.9c-0.1,0.6-0.6,1-1.2,1c-0.7,0-1.1-0.5-1-1.2
	c0.1-0.6,0.6-1,1.2-1C198.9,180.6,199.3,181.2,199.2,181.9z"/>
<path class="st8" d="M209.6,181.4l-1.9,13.3h-1.4l0-1.6c-0.7,1.1-1.6,1.8-2.9,1.8c-2,0-3-1.5-3-3.8c0-2.5,1.2-6.2,4.4-6.2
	c1.1,0,1.9,0.5,2.4,1.2l0.7-5L209.6,181.4z M202.2,191.3c0,1.6,0.6,2.3,1.6,2.3c1.2,0,2-0.9,2.8-2.2l0.6-3.9c-0.5-0.7-1.1-1.1-2-1.1
	C202.9,186.3,202.2,189.4,202.2,191.3z"/>
<path class="st8" d="M212.8,191.1c0,1.7,0.8,2.4,2,2.4c0.9,0,1.7-0.3,2.5-0.9l0.7,1.1c-1,0.7-2.1,1.1-3.4,1.1
	c-2.3,0-3.6-1.5-3.6-3.9c0-2.6,1.3-6.1,4.9-6.1c2,0,3,1.1,3,2.4C218.9,190,216.1,190.8,212.8,191.1z M217.2,187.4
	c0-0.5-0.3-1.1-1.3-1.1c-2,0-2.8,1.9-3,3.6C215.6,189.6,217.2,189.1,217.2,187.4z"/>
<path class="st8" d="M134.3,229.6v0.7h2.2l-0.3,2h-2v7.6h-2.8v-7.6H130v-2h1.4v-0.9c0-1.8,1.2-3.3,3.7-3.3c1,0,1.9,0.2,2.6,0.6
	l-0.8,1.9c-0.5-0.3-1.1-0.4-1.5-0.4C134.7,228.4,134.3,228.7,134.3,229.6z"/>
<path class="st8" d="M145.6,239.9h-2.5l-0.1-1.2c-0.7,1-1.6,1.5-2.9,1.5c-1.8,0-2.7-1.1-2.7-3v-6.9h2.8v6.5c0,1,0.3,1.3,0.9,1.3
	c0.6,0,1.1-0.4,1.5-1.1v-6.6h2.8L145.6,239.9L145.6,239.9z"/>
<path class="st8" d="M156.1,232.9v7h-2.8v-6.5c0-1-0.3-1.3-0.9-1.3c-0.6,0-1.1,0.5-1.7,1.2v6.5h-2.8v-9.6h2.5l0.2,1.1
	c0.8-0.9,1.7-1.4,2.9-1.4C155.1,230.1,156.1,231.1,156.1,232.9z"/>
<path class="st8" d="M165.6,231.2l-1.2,1.7c-0.6-0.5-1.2-0.7-1.8-0.7c-1.2,0-1.9,0.8-1.9,3c0,2.1,0.8,2.8,1.9,2.8
	c0.7,0,1.2-0.2,1.8-0.6l1.2,1.8c-0.9,0.7-1.9,1.1-3.2,1.1c-2.9,0-4.7-2-4.7-5c0-3,1.8-5.2,4.7-5.2
	C163.7,230.1,164.7,230.5,165.6,231.2z"/>
<path class="st8" d="M172.8,239.5c-0.7,0.5-1.7,0.8-2.6,0.8c-2.1,0-3.1-1.2-3.1-3.5v-4.4h-1.3v-2h1.3v-2.1l2.8-0.3v2.4h2.2l-0.3,2
	h-1.9v4.4c0,0.9,0.3,1.2,0.9,1.2c0.3,0,0.7-0.1,1-0.3L172.8,239.5z"/>
<path class="st8" d="M176.9,227c0,0.9-0.7,1.6-1.7,1.6s-1.7-0.7-1.7-1.6c0-0.9,0.7-1.6,1.7-1.6S176.9,226,176.9,227z M176.6,239.9
	h-2.8v-9.6h2.8V239.9z"/>
<path class="st8" d="M187.7,235.2c0,3.1-1.8,5.1-4.7,5.1c-2.9,0-4.7-1.9-4.7-5.1c0-3.1,1.8-5.1,4.7-5.1S187.7,231.9,187.7,235.2z
	 M181.3,235.1c0,2.1,0.6,3,1.7,3s1.7-0.9,1.7-3c0-2.1-0.6-3-1.7-3S181.3,233.1,181.3,235.1z"/>
<path class="st8" d="M197.6,232.9v7h-2.8v-6.5c0-1-0.3-1.3-0.9-1.3c-0.6,0-1.2,0.5-1.7,1.2v6.5h-2.8v-9.6h2.5l0.2,1.1
	c0.8-0.9,1.7-1.4,2.9-1.4C196.6,230.1,197.6,231.1,197.6,232.9z"/>
<path class="st8" d="M208,238.3l-0.6,1.9c-1.1-0.1-1.8-0.4-2.3-1.4c-0.7,1-1.8,1.4-2.9,1.4c-1.9,0-3.1-1.2-3.1-3
	c0-2.1,1.6-3.2,4.5-3.2h1v-0.4c0-1.1-0.5-1.5-1.6-1.5c-0.6,0-1.5,0.2-2.5,0.5l-0.7-1.9c1.2-0.5,2.5-0.7,3.6-0.7c2.8,0,4,1.2,4,3.4
	v3.7C207.3,237.9,207.5,238.2,208,238.3z M204.5,237.3v-1.7h-0.7c-1.3,0-1.9,0.5-1.9,1.4c0,0.8,0.4,1.2,1.1,1.2
	C203.7,238.2,204.2,237.9,204.5,237.3z"/>
<path class="st8" d="M209.5,237.5v-10.9l2.8-0.3v11.1c0,0.4,0.1,0.6,0.5,0.6c0.2,0,0.3,0,0.5-0.1l0.6,2c-0.4,0.2-1,0.3-1.7,0.3
	C210.5,240.2,209.5,239.2,209.5,237.5z"/>
<path class="st8" d="M218,227c0,0.9-0.7,1.6-1.7,1.6s-1.7-0.7-1.7-1.6c0-0.9,0.7-1.6,1.7-1.6S218,226,218,227z M217.8,239.9H215
	v-9.6h2.8V239.9z"/>
<path class="st8" d="M226,239.5c-0.7,0.5-1.7,0.8-2.6,0.8c-2.1,0-3.1-1.2-3.1-3.5v-4.4H219v-2h1.3v-2.1l2.8-0.3v2.4h2.2l-0.3,2h-1.9
	v4.4c0,0.9,0.3,1.2,0.9,1.2c0.3,0,0.7-0.1,1-0.3L226,239.5z"/>
<path class="st8" d="M230.1,227c0,0.9-0.7,1.6-1.7,1.6s-1.7-0.7-1.7-1.6c0-0.9,0.7-1.6,1.7-1.6S230.1,226,230.1,227z M229.8,239.9
	H227v-9.6h2.8V239.9z"/>
<path class="st8" d="M240.3,236h-5.9c0.2,1.7,1,2.2,2.2,2.2c0.8,0,1.5-0.3,2.3-0.9l1.2,1.6c-1,0.8-2.2,1.3-3.7,1.3
	c-3.2,0-4.8-2-4.8-5c0-2.9,1.6-5.1,4.5-5.1c2.7,0,4.4,1.8,4.4,4.9C240.4,235.3,240.4,235.7,240.3,236z M237.6,234.1
	c0-1.3-0.4-2.2-1.5-2.2c-1,0-1.5,0.6-1.6,2.3h3.2V234.1z"/>
<path class="st8" d="M248.9,231.2l-1,1.6c-0.7-0.5-1.5-0.7-2.4-0.7c-0.8,0-1.2,0.3-1.2,0.7c0,0.5,0.2,0.7,2,1.2c1.9,0.5,3,1.3,3,3
	c0,2-1.9,3.1-4.2,3.1c-1.7,0-3.1-0.6-4-1.4l1.4-1.5c0.7,0.6,1.6,0.9,2.5,0.9c0.9,0,1.4-0.3,1.4-0.9c0-0.6-0.3-0.9-2-1.3
	c-1.9-0.5-2.8-1.5-2.8-3c0-1.6,1.5-2.9,3.9-2.9C246.8,230.1,248,230.5,248.9,231.2z"/>
<path class="st8" d="M102.2,140.4v7h-2.8v-6.5c0-1-0.4-1.3-0.8-1.3c-0.6,0-1,0.5-1.5,1.2v6.5h-2.9v-6.5c0-1-0.4-1.3-0.8-1.3
	c-0.6,0-1,0.5-1.5,1.2v6.5h-2.8v-9.6h2.5l0.2,1.1c0.7-0.9,1.6-1.4,2.8-1.4c1.1,0,1.9,0.5,2.2,1.5c0.8-1,1.6-1.5,2.9-1.5
	C101.1,137.5,102.2,138.6,102.2,140.4z"/>
<path class="st8" d="M112.7,142.6c0,3.1-1.8,5.1-4.7,5.1c-2.9,0-4.7-1.9-4.7-5.1c0-3.1,1.8-5.1,4.7-5.1S112.7,139.4,112.7,142.6z
	 M106.3,142.6c0,2.1,0.6,3,1.7,3s1.7-0.9,1.7-3c0-2.1-0.6-3-1.7-3S106.3,140.5,106.3,142.6z"/>
<path class="st8" d="M122.5,134v13.4H120l-0.1-1.1c-0.5,0.8-1.4,1.4-2.7,1.4c-2.4,0-3.6-2-3.6-5.1c0-3,1.5-5.1,4-5.1
	c0.9,0,1.6,0.3,2.2,0.9v-4.7L122.5,134z M119.6,144.5v-4.1c-0.4-0.5-0.9-0.8-1.5-0.8c-1,0-1.8,0.9-1.8,3c0,2.4,0.6,3,1.6,3
	C118.7,145.6,119.2,145.2,119.6,144.5z"/>
<path class="st8" d="M132.3,147.4h-2.5l-0.1-1.2c-0.7,1-1.6,1.5-2.9,1.5c-1.8,0-2.7-1.1-2.7-3v-6.9h2.8v6.5c0,1,0.3,1.3,0.9,1.3
	c0.6,0,1.1-0.4,1.5-1.1v-6.6h2.8L132.3,147.4L132.3,147.4z"/>
<path class="st8" d="M134,145V134l2.8-0.3v11.1c0,0.4,0.1,0.6,0.5,0.6c0.2,0,0.3,0,0.5-0.1l0.6,2c-0.4,0.2-1,0.3-1.7,0.3
	C135,147.7,134,146.7,134,145z"/>
<path class="st8" d="M147.3,145.8l-0.6,1.9c-1.1-0.1-1.9-0.4-2.3-1.4c-0.7,1-1.8,1.4-2.9,1.4c-1.9,0-3.1-1.2-3.1-3
	c0-2.1,1.6-3.2,4.5-3.2h1v-0.4c0-1.1-0.5-1.5-1.6-1.5c-0.6,0-1.5,0.2-2.5,0.5l-0.6-1.9c1.2-0.5,2.5-0.7,3.6-0.7c2.8,0,4,1.2,4,3.4
	v3.7C146.6,145.4,146.8,145.6,147.3,145.8z M143.8,144.8v-1.7h-0.7c-1.3,0-1.9,0.5-1.9,1.4c0,0.8,0.4,1.2,1.1,1.2
	C143,145.7,143.5,145.3,143.8,144.8z"/>
<path class="st8" d="M154.6,137.7l-0.5,2.8c-0.3-0.1-0.5-0.1-0.9-0.1c-1.2,0-1.7,0.9-2,2.3v4.8h-2.8v-9.6h2.5l0.2,1.8
	c0.4-1.3,1.4-2.1,2.5-2.1C154,137.6,154.3,137.6,154.6,137.7z"/>
<path class="st8" d="M162.1,134.4c0,0.9-0.7,1.6-1.7,1.6s-1.7-0.7-1.7-1.6c0-0.9,0.7-1.6,1.7-1.6S162.1,133.5,162.1,134.4z
	 M161.8,147.4H159v-9.6h2.8V147.4z"/>
<path class="st8" d="M171.9,140.4v7H169v-6.5c0-1-0.3-1.3-0.9-1.3c-0.6,0-1.2,0.5-1.7,1.2v6.5h-2.8v-9.6h2.5l0.2,1.1
	c0.8-0.9,1.7-1.4,2.9-1.4C170.9,137.5,171.9,138.6,171.9,140.4z"/>
<path class="st8" d="M179.6,146.9c-0.7,0.5-1.7,0.8-2.6,0.8c-2.1,0-3.1-1.2-3.1-3.5v-4.4h-1.3v-2h1.3v-2.1l2.8-0.3v2.4h2.2l-0.3,2
	h-1.9v4.4c0,0.9,0.3,1.2,0.9,1.2c0.3,0,0.7-0.1,1-0.3L179.6,146.9z"/>
<path class="st8" d="M188.2,143.5h-5.9c0.2,1.7,1,2.2,2.2,2.2c0.8,0,1.5-0.3,2.3-0.9l1.2,1.6c-1,0.8-2.2,1.3-3.7,1.3
	c-3.2,0-4.8-2-4.8-5c0-2.9,1.6-5.1,4.5-5.1c2.7,0,4.4,1.8,4.4,4.9C188.2,142.7,188.2,143.2,188.2,143.5z M185.4,141.6
	c0-1.3-0.4-2.2-1.5-2.2c-1,0-1.5,0.6-1.6,2.3h3.2V141.6z"/>
<path class="st8" d="M195.5,137.7l-0.5,2.8c-0.3-0.1-0.5-0.1-0.9-0.1c-1.2,0-1.7,0.9-2,2.3v4.8h-2.8v-9.6h2.5l0.2,1.8
	c0.4-1.3,1.4-2.1,2.5-2.1C195,137.6,195.2,137.6,195.5,137.7z"/>
<path class="st8" d="M199.4,137.1v0.7h2.2l-0.3,2h-2v7.6h-2.8v-7.6h-1.4v-2h1.4V137c0-1.8,1.2-3.3,3.7-3.3c1,0,1.9,0.2,2.6,0.6
	l-0.8,1.9c-0.5-0.3-1.1-0.4-1.5-0.4C199.7,135.8,199.4,136.2,199.4,137.1z"/>
<path class="st8" d="M210.4,145.8l-0.6,1.9c-1.1-0.1-1.8-0.4-2.3-1.4c-0.7,1-1.8,1.4-2.9,1.4c-1.9,0-3.1-1.2-3.1-3
	c0-2.1,1.6-3.2,4.5-3.2h1v-0.4c0-1.1-0.5-1.5-1.6-1.5c-0.6,0-1.5,0.2-2.5,0.5l-0.7-1.9c1.2-0.5,2.5-0.7,3.6-0.7c2.8,0,4,1.2,4,3.4
	v3.7C209.7,145.4,209.9,145.6,210.4,145.8z M206.9,144.8v-1.7h-0.7c-1.3,0-1.9,0.5-1.9,1.4c0,0.8,0.4,1.2,1.1,1.2
	C206.1,145.7,206.6,145.3,206.9,144.8z"/>
<path class="st8" d="M219,138.7l-1.2,1.7c-0.6-0.5-1.2-0.7-1.8-0.7c-1.2,0-1.9,0.8-1.9,3c0,2.1,0.8,2.8,1.9,2.8
	c0.7,0,1.2-0.2,1.8-0.6l1.2,1.8c-0.9,0.7-1.9,1.1-3.2,1.1c-2.9,0-4.7-2-4.7-5c0-3,1.8-5.2,4.7-5.2C217,137.5,218,137.9,219,138.7z"
	/>
<path class="st8" d="M227.8,143.5h-5.9c0.2,1.7,1,2.2,2.2,2.2c0.8,0,1.5-0.3,2.3-0.9l1.2,1.6c-1,0.8-2.2,1.3-3.7,1.3
	c-3.2,0-4.8-2-4.8-5c0-2.9,1.6-5.1,4.5-5.1c2.7,0,4.4,1.8,4.4,4.9C227.9,142.7,227.9,143.2,227.8,143.5z M225.1,141.6
	c0-1.3-0.4-2.2-1.5-2.2c-1,0-1.5,0.6-1.6,2.3h3.2V141.6z"/>
<path class="st8" d="M236.1,137.1v0.7h2.2l-0.3,2h-2v7.6h-2.8v-7.6h-1.4v-2h1.4V137c0-1.8,1.2-3.3,3.7-3.3c1,0,1.9,0.2,2.6,0.6
	l-0.8,1.9c-0.5-0.3-1.1-0.4-1.5-0.4C236.4,135.8,236.1,136.2,236.1,137.1z"/>
<path class="st8" d="M246.9,143.5H241c0.2,1.7,1,2.2,2.2,2.2c0.8,0,1.5-0.3,2.3-0.9l1.2,1.6c-1,0.8-2.2,1.3-3.7,1.3
	c-3.2,0-4.8-2-4.8-5c0-2.9,1.6-5.1,4.5-5.1c2.7,0,4.4,1.8,4.4,4.9C247,142.7,247,143.2,246.9,143.5z M244.2,141.6
	c0-1.3-0.4-2.2-1.5-2.2c-1,0-1.5,0.6-1.6,2.3h3.2V141.6z"/>
<path class="st8" d="M256.4,145.8l-0.6,1.9c-1.1-0.1-1.8-0.4-2.3-1.4c-0.7,1-1.8,1.4-2.9,1.4c-1.9,0-3.1-1.2-3.1-3
	c0-2.1,1.6-3.2,4.5-3.2h1v-0.4c0-1.1-0.5-1.5-1.6-1.5c-0.6,0-1.5,0.2-2.5,0.5l-0.7-1.9c1.2-0.5,2.5-0.7,3.6-0.7c2.8,0,4,1.2,4,3.4
	v3.7C255.8,145.4,256,145.6,256.4,145.8z M253,144.8v-1.7h-0.7c-1.3,0-1.9,0.5-1.9,1.4c0,0.8,0.4,1.2,1.1,1.2
	C252.1,145.7,252.6,145.3,253,144.8z"/>
<path class="st8" d="M263.6,146.9c-0.7,0.5-1.7,0.8-2.6,0.8c-2.1,0-3.1-1.2-3.1-3.5v-4.4h-1.3v-2h1.3v-2.1l2.8-0.3v2.4h2.2l-0.3,2
	h-1.9v4.4c0,0.9,0.3,1.2,0.9,1.2c0.3,0,0.7-0.1,1-0.3L263.6,146.9z"/>
<path class="st8" d="M272.2,147.4h-2.5l-0.1-1.2c-0.7,1-1.6,1.5-2.9,1.5c-1.8,0-2.7-1.1-2.7-3v-6.9h2.8v6.5c0,1,0.3,1.3,0.9,1.3
	c0.6,0,1.1-0.4,1.5-1.1v-6.6h2.8L272.2,147.4L272.2,147.4z"/>
<path class="st8" d="M280.1,137.7l-0.5,2.8c-0.3-0.1-0.5-0.1-0.9-0.1c-1.2,0-1.7,0.9-2,2.3v4.8H274v-9.6h2.5l0.2,1.8
	c0.4-1.3,1.4-2.1,2.5-2.1C279.5,137.6,279.8,137.6,280.1,137.7z"/>
<path class="st8" d="M288.8,143.5h-5.9c0.2,1.7,1,2.2,2.2,2.2c0.8,0,1.5-0.3,2.3-0.9l1.2,1.6c-1,0.8-2.2,1.3-3.7,1.3
	c-3.2,0-4.8-2-4.8-5c0-2.9,1.6-5.1,4.5-5.1c2.7,0,4.4,1.8,4.4,4.9C288.9,142.7,288.8,143.2,288.8,143.5z M286.1,141.6
	c0-1.3-0.4-2.2-1.5-2.2c-1,0-1.5,0.6-1.6,2.3h3.2V141.6z"/>
<path class="st8" d="M296.9,138.7l-1,1.6c-0.7-0.5-1.5-0.7-2.4-0.7c-0.8,0-1.2,0.3-1.2,0.7c0,0.5,0.2,0.7,2,1.2c1.9,0.5,3,1.3,3,3
	c0,2-1.9,3.1-4.2,3.1c-1.7,0-3.1-0.6-4-1.4l1.4-1.5c0.7,0.6,1.6,0.9,2.5,0.9c0.9,0,1.4-0.3,1.4-0.9c0-0.6-0.3-0.9-2-1.3
	c-1.9-0.5-2.8-1.5-2.8-3c0-1.6,1.5-2.9,3.9-2.9C294.8,137.5,296,138,296.9,138.7z"/>
<ellipse class="st9" cx="187.1" cy="40.7" rx="115.1" ry="32.2"/>
<path class="st10" d="M104.5,34.9v0.7h2.2l-0.3,2h-2v7.6h-2.8v-7.6h-1.4v-2h1.4v-0.9c0-1.8,1.2-3.3,3.7-3.3c1,0,1.9,0.2,2.6,0.6
	l-0.8,1.9c-0.5-0.3-1.1-0.4-1.5-0.4C104.8,33.6,104.5,34,104.5,34.9z"/>
<path class="st10" d="M115.8,41.3h-5.9c0.2,1.7,1,2.2,2.2,2.2c0.8,0,1.5-0.3,2.3-0.9l1.2,1.6c-1,0.8-2.2,1.3-3.7,1.3
	c-3.2,0-4.8-2.1-4.8-5c0-2.9,1.6-5.1,4.5-5.1c2.7,0,4.4,1.8,4.4,4.9C115.8,40.6,115.8,41,115.8,41.3z M113,39.4
	c0-1.3-0.4-2.2-1.5-2.2c-1,0-1.5,0.6-1.6,2.3h3.2V39.4z"/>
<path class="st10" d="M125.7,43.6l-0.6,1.9c-1.1-0.1-1.9-0.4-2.3-1.4c-0.7,1-1.8,1.4-2.9,1.4c-1.9,0-3.1-1.2-3.1-3
	c0-2.1,1.6-3.2,4.5-3.2h1v-0.4c0-1.1-0.5-1.5-1.6-1.5c-0.6,0-1.5,0.2-2.5,0.5l-0.6-1.9c1.2-0.4,2.5-0.7,3.6-0.7c2.8,0,4,1.2,4,3.4
	v3.7C125.1,43.2,125.2,43.4,125.7,43.6z M122.3,42.6v-1.7h-0.7c-1.3,0-1.9,0.4-1.9,1.4c0,0.8,0.4,1.2,1.1,1.2
	C121.4,43.5,121.9,43.1,122.3,42.6z"/>
<path class="st10" d="M133.3,44.8c-0.7,0.5-1.7,0.8-2.6,0.8c-2.1,0-3.1-1.2-3.1-3.5v-4.4h-1.4v-2h1.4v-2.1l2.8-0.3v2.4h2.2l-0.3,2
	h-1.9V42c0,0.9,0.3,1.2,0.9,1.2c0.3,0,0.6-0.1,1-0.3L133.3,44.8z"/>
<path class="st10" d="M142.3,45.2h-2.5l-0.1-1.2c-0.7,1-1.6,1.5-2.9,1.5c-1.8,0-2.7-1.1-2.7-3v-6.9h2.8v6.5c0,1,0.3,1.3,0.9,1.3
	c0.6,0,1.1-0.4,1.5-1.1v-6.6h2.8L142.3,45.2L142.3,45.2z"/>
<path class="st10" d="M150.7,35.5l-0.5,2.8c-0.3-0.1-0.5-0.1-0.9-0.1c-1.2,0-1.7,0.9-2,2.3v4.8h-2.8v-9.6h2.5l0.2,1.8
	c0.4-1.3,1.4-2.1,2.5-2.1C150.1,35.4,150.4,35.4,150.7,35.5z"/>
<path class="st10" d="M159.9,41.3H154c0.2,1.7,1,2.2,2.2,2.2c0.8,0,1.5-0.3,2.3-0.9l1.2,1.6c-1,0.8-2.2,1.3-3.7,1.3
	c-3.2,0-4.8-2.1-4.8-5c0-2.9,1.6-5.1,4.5-5.1c2.7,0,4.4,1.8,4.4,4.9C159.9,40.6,159.9,41,159.9,41.3z M157.2,39.4
	c0-1.3-0.4-2.2-1.5-2.2c-1,0-1.5,0.6-1.6,2.3h3.2V39.4z"/>
<path class="st10" d="M161.2,38.5h5.7v2.2h-5.7V38.5z"/>
<path class="st10" d="M177.9,40.4c0,2.9-1.4,5.1-3.8,5.1c-1.1,0-1.9-0.4-2.5-1.2l-0.1,0.9h-2.5V31.9l2.8-0.3v5.1
	c0.6-0.8,1.5-1.3,2.5-1.3C176.6,35.3,177.9,37.2,177.9,40.4z M174.9,40.4c0-2.4-0.7-3-1.5-3c-0.7,0-1.2,0.4-1.6,1.1v4
	c0.4,0.6,0.9,0.9,1.5,0.9C174.2,43.4,174.9,42.7,174.9,40.4z"/>
<path class="st10" d="M188.5,40.4c0,3.1-1.8,5.1-4.7,5.1c-2.9,0-4.7-1.9-4.7-5.1c0-3.1,1.8-5.1,4.7-5.1S188.5,37.2,188.5,40.4z
	 M182.1,40.4c0,2.1,0.6,3,1.7,3s1.7-0.9,1.7-3c0-2.1-0.6-3-1.7-3S182.1,38.4,182.1,40.4z"/>
<path class="st10" d="M198.2,45.2h-2.5l-0.1-1.2c-0.7,1-1.6,1.5-2.9,1.5c-1.8,0-2.7-1.1-2.7-3v-6.9h2.8v6.5c0,1,0.3,1.3,0.9,1.3
	c0.6,0,1.1-0.4,1.5-1.1v-6.6h2.8L198.2,45.2L198.2,45.2z"/>
<path class="st10" d="M208.7,38.2v7h-2.8v-6.5c0-1-0.3-1.3-0.9-1.3c-0.6,0-1.2,0.4-1.7,1.2v6.5h-2.8v-9.6h2.5l0.2,1.1
	c0.8-0.9,1.7-1.4,2.9-1.4C207.7,35.3,208.7,36.4,208.7,38.2z"/>
<path class="st10" d="M219.4,31.9v13.4h-2.5l-0.1-1.1c-0.5,0.8-1.4,1.4-2.7,1.4c-2.4,0-3.6-2-3.6-5.1c0-2.9,1.5-5.1,4-5.1
	c0.9,0,1.6,0.3,2.2,0.9v-4.7L219.4,31.9z M216.6,42.4v-4.1c-0.4-0.5-0.9-0.8-1.5-0.8c-1,0-1.8,0.9-1.8,3c0,2.4,0.7,3,1.6,3
	C215.6,43.4,216.1,43.1,216.6,42.4z"/>
<path class="st10" d="M233.3,36.5l-1.2,1.7c-0.6-0.5-1.2-0.7-1.8-0.7c-1.2,0-1.9,0.8-1.9,3c0,2.1,0.8,2.8,1.9,2.8
	c0.7,0,1.2-0.2,1.8-0.6l1.2,1.8c-0.9,0.7-1.9,1.1-3.2,1.1c-2.9,0-4.7-2-4.7-5c0-3,1.8-5.2,4.7-5.2C231.4,35.3,232.4,35.7,233.3,36.5
	z"/>
<path class="st10" d="M234.4,42.8V31.9l2.8-0.3v11.1c0,0.4,0.1,0.6,0.5,0.6c0.2,0,0.3,0,0.5-0.1l0.6,2c-0.4,0.2-1,0.3-1.7,0.3
	C235.4,45.5,234.4,44.5,234.4,42.8z"/>
<path class="st10" d="M243,32.2c0,0.9-0.7,1.6-1.7,1.6s-1.7-0.7-1.7-1.6s0.7-1.6,1.7-1.6S243,31.3,243,32.2z M242.7,45.2h-2.8v-9.6
	h2.8V45.2z"/>
<path class="st10" d="M253.2,41.3h-5.9c0.2,1.7,1,2.2,2.2,2.2c0.8,0,1.5-0.3,2.3-0.9l1.2,1.6c-1,0.8-2.2,1.3-3.7,1.3
	c-3.2,0-4.8-2.1-4.8-5c0-2.9,1.6-5.1,4.5-5.1c2.7,0,4.4,1.8,4.4,4.9C253.3,40.6,253.3,41,253.2,41.3z M250.5,39.4
	c0-1.3-0.4-2.2-1.5-2.2c-1,0-1.5,0.6-1.6,2.3h3.2V39.4z"/>
<path class="st10" d="M263.2,38.2v7h-2.8v-6.5c0-1-0.3-1.3-0.9-1.3c-0.6,0-1.2,0.4-1.7,1.2v6.5h-2.8v-9.6h2.5l0.2,1.1
	c0.8-0.9,1.7-1.4,2.9-1.4C262.2,35.3,263.2,36.4,263.2,38.2z"/>
<path class="st10" d="M271.3,44.8c-0.7,0.5-1.7,0.8-2.6,0.8c-2.1,0-3.1-1.2-3.1-3.5v-4.4h-1.3v-2h1.3v-2.1l2.8-0.3v2.4h2.2l-0.3,2
	h-1.9V42c0,0.9,0.3,1.2,0.9,1.2c0.3,0,0.7-0.1,1-0.3L271.3,44.8z"/>
<path class="st8" d="M57.1,75.2L56.4,76c-0.5-0.4-0.9-0.6-1.5-0.6c-2,0-2.6,2.4-2.6,4c0,1.4,0.6,2,1.6,2c0.7,0,1.2-0.2,1.8-0.6
	l0.6,1c-0.8,0.6-1.6,0.8-2.5,0.8c-1.9,0-3-1.2-3-3.2c0-2.1,1.1-5,4-5C55.7,74.3,56.5,74.6,57.1,75.2z"/>
<path class="st8" d="M64.8,77.6c0,1.9-1,5-4.1,5c-2,0-3-1.3-3-3.3c0-2,1-5,4.1-5C63.8,74.3,64.8,75.6,64.8,77.6z M59.2,79.5
	c0,1.4,0.6,2,1.6,2c2.1,0,2.6-2.5,2.6-4c0-1.4-0.6-2-1.6-2C59.7,75.4,59.2,78,59.2,79.5z"/>
<path class="st8" d="M72.3,82.4h-1.2l0.1-1.5c-0.7,1-1.5,1.6-2.6,1.6c-1.4,0-2.1-0.9-1.9-2.5l0.8-5.6h1.4l-0.8,5.6
	c-0.1,1.1,0.1,1.4,0.8,1.4c1,0,1.8-0.9,2.4-1.9l0.7-5.1h1.4L72.3,82.4z"/>
<path class="st8" d="M82.2,77.4c0,2.2-1.1,5.2-4.2,5.2c-0.5,0-1-0.1-1.5-0.3L76,85.5l-1.4,0.2l1.6-11.1h1.2l0,1
	c0.8-0.9,1.6-1.2,2.4-1.2C81.3,74.3,82.2,75.4,82.2,77.4z M77.3,76.5l-0.6,4.7c0.5,0.2,0.8,0.2,1.4,0.2c2,0,2.7-2.4,2.7-4.2
	c0-1.4-0.6-1.9-1.4-1.9S77.9,76,77.3,76.5z"/>
<path class="st8" d="M85.4,80.9c0,0.4,0,0.6,0.4,0.6c0.2,0,0.4,0,0.5-0.1l0.3,1c-0.4,0.2-0.8,0.3-1.1,0.3c-1,0-1.6-0.6-1.4-2
	l1.3-9.3l1.4-0.2L85.4,80.9z"/>
<path class="st8" d="M89.4,79.5c0,1.4,0.7,2,1.7,2c0.7,0,1.4-0.2,2.1-0.7l0.6,0.9c-0.9,0.6-1.8,1-2.8,1c-1.9,0-3-1.2-3-3.2
	c0-2.2,1.1-5,4.1-5c1.7,0,2.5,1,2.5,2C94.5,78.5,92.2,79.2,89.4,79.5z M93.1,76.4c0-0.4-0.2-1-1.1-1c-1.6,0-2.3,1.6-2.5,3
	C91.7,78.2,93.1,77.7,93.1,76.4z"/>
<path class="st8" d="M103.5,71.3l-1.6,11.1h-1.2l0-1.3c-0.5,0.9-1.4,1.5-2.4,1.5c-1.6,0-2.5-1.2-2.5-3.1c0-2,1-5.1,3.7-5.1
	c0.9,0,1.6,0.4,2,1l0.6-4.1L103.5,71.3z M97.3,79.5c0,1.3,0.5,1.9,1.3,1.9c1,0,1.6-0.7,2.3-1.8l0.5-3.3c-0.4-0.6-0.9-1-1.6-1
	C97.9,75.4,97.3,78,97.3,79.5z"/>
<path class="st8" d="M110.4,80.3c-0.1,0.8,0.1,1.1,0.7,1.1c0.4,0,0.7-0.1,1.1-0.4l0.5,1c-0.6,0.4-1.1,0.5-1.8,0.5
	c-1.4,0-2.1-0.8-1.9-2.3l0.7-4.7h-1.4l0.1-1.1h1.4l0.5-1.8l1.1-0.1l-0.3,2h1.9l-0.3,1.1H111L110.4,80.3z"/>
<path class="st8" d="M120.8,77.6c0,1.9-1,5-4.1,5c-2,0-3-1.3-3-3.3c0-2,1-5,4.1-5C119.8,74.3,120.8,75.6,120.8,77.6z M115.2,79.5
	c0,1.4,0.6,2,1.6,2c2.1,0,2.6-2.5,2.6-4c0-1.4-0.6-2-1.6-2C115.7,75.4,115.2,78,115.2,79.5z"/>
<path class="st8" d="M10.3,93.9l-0.4,1.3c-0.2-0.1-0.4-0.1-0.6-0.1c-1,0-1.7,0.9-2.3,2.5l-0.6,4.2H5L6.1,94h1.2l-0.1,1.6
	c0.6-1.2,1.4-1.8,2.3-1.8C9.8,93.8,10,93.9,10.3,93.9z"/>
<path class="st8" d="M11.9,99c0,1.4,0.7,2,1.7,2c0.7,0,1.4-0.2,2.1-0.7l0.6,0.9c-0.9,0.6-1.8,1-2.8,1c-1.9,0-3-1.2-3-3.2
	c0-2.2,1.1-5,4.1-5c1.7,0,2.5,1,2.5,2C17.1,98,14.7,98.7,11.9,99z M15.6,95.9c0-0.4-0.2-1-1.1-1c-1.6,0-2.3,1.6-2.5,3
	C14.3,97.6,15.6,97.2,15.6,95.9z"/>
<path class="st8" d="M24.2,101.9H23l0.1-1.5c-0.7,1-1.5,1.6-2.6,1.6c-1.4,0-2.1-0.9-1.9-2.5l0.8-5.6h1.4L20,99.6
	c-0.1,1.1,0.1,1.4,0.8,1.4c1,0,1.8-0.9,2.4-1.9l0.7-5.1h1.4L24.2,101.9z"/>
<path class="st8" d="M32.7,94.8l-0.7,0.8c-0.6-0.5-1.3-0.7-2-0.7c-1,0-1.6,0.4-1.6,1.1c0,0.6,0.5,0.9,1.6,1.2
	c1.5,0.5,2.2,1.1,2.2,2.4c0,1.8-1.6,2.5-3.3,2.5c-1.4,0-2.3-0.5-2.9-1.1l0.8-0.8c0.6,0.5,1.3,0.8,2.2,0.8c1.4,0,1.8-0.8,1.8-1.3
	c0-0.8-0.4-1.1-1.7-1.5c-1.5-0.5-2.1-1.1-2.1-2.2c0-1,0.9-2.2,3-2.2C31.2,93.8,32,94.2,32.7,94.8z"/>
<path class="st8" d="M40.9,94.5l-0.9,5.6c0,0.1,0,0.2,0,0.3c0,0.4,0.2,0.6,0.5,0.7l-0.4,0.9c-0.8-0.1-1.3-0.5-1.4-1.3
	c-0.6,0.8-1.4,1.3-2.4,1.3c-1.6,0-2.5-1.2-2.5-3c0-2.2,1.1-5.2,4.2-5.2C39,93.8,39.8,94,40.9,94.5z M35.3,99.1
	c0,1.3,0.5,1.9,1.4,1.9c0.8,0,1.5-0.6,2.1-1.5l0.7-4.4c-0.5-0.2-0.8-0.2-1.3-0.2C36.1,94.9,35.3,97.3,35.3,99.1z"/>
<path class="st8" d="M44.9,94.8c0.7-0.6,1.4-1,2.3-1c1.5,0,2.4,1.1,2.4,3.1c0,2.2-1.1,5.2-4.2,5.2c-0.9,0-1.6-0.1-2.8-0.5L44,90.8
	l1.4-0.2L44.9,94.8z M44.7,96l-0.6,4.7c0.5,0.2,0.8,0.2,1.4,0.2c2,0,2.7-2.4,2.7-4.2c0-1.4-0.6-1.9-1.4-1.9S45.2,95.5,44.7,96z"/>
<path class="st8" d="M52.7,100.4c0,0.4,0,0.6,0.4,0.6c0.2,0,0.4,0,0.5-0.1l0.3,1c-0.4,0.2-0.8,0.2-1.1,0.2c-1,0-1.6-0.6-1.4-2
	l1.3-9.3l1.4-0.2L52.7,100.4z"/>
<path class="st8" d="M56.7,99c0,1.4,0.7,2,1.7,2c0.7,0,1.4-0.2,2.1-0.7l0.6,0.9c-0.9,0.6-1.8,1-2.8,1c-1.9,0-3-1.2-3-3.2
	c0-2.2,1.1-5,4.1-5c1.7,0,2.5,1,2.5,2C61.8,98,59.5,98.7,56.7,99z M60.4,95.9c0-0.4-0.2-1-1.1-1c-1.6,0-2.3,1.6-2.5,3
	C59,97.6,60.4,97.2,60.4,95.9z"/>
<path class="st8" d="M69.8,92.9l-0.1,1h1.9L71.2,95h-1.8l-0.9,6.4c-0.3,2.2-1.2,2.9-3,3.6l-0.4-1c1.1-0.5,1.7-0.9,2-2.6l0.9-6.4
	h-1.4l0.1-1.1h1.4l0.2-1.1c0.2-1.3,1.1-2.2,2.7-2.2c0.8,0,1.3,0.2,1.9,0.6l-0.5,0.9c-0.5-0.3-0.9-0.4-1.3-0.4
	C70.3,91.8,69.9,92.2,69.8,92.9z"/>
<path class="st8" d="M73.2,99c0,1.4,0.7,2,1.7,2c0.7,0,1.4-0.2,2.1-0.7l0.6,0.9c-0.9,0.6-1.8,1-2.8,1c-1.9,0-3-1.2-3-3.2
	c0-2.2,1.1-5,4.1-5c1.7,0,2.5,1,2.5,2C78.3,98,76,98.7,73.2,99z M76.9,95.9c0-0.4-0.2-1-1.1-1c-1.6,0-2.3,1.6-2.5,3
	C75.5,97.6,76.9,97.2,76.9,95.9z"/>
<path class="st8" d="M86.6,94.5l-0.9,5.6c0,0.1,0,0.2,0,0.3c0,0.4,0.2,0.6,0.5,0.7l-0.4,0.9c-0.8-0.1-1.3-0.5-1.4-1.3
	c-0.6,0.8-1.4,1.3-2.4,1.3c-1.6,0-2.5-1.2-2.5-3c0-2.2,1.1-5.2,4.2-5.2C84.7,93.8,85.5,94,86.6,94.5z M81,99.1
	c0,1.3,0.5,1.9,1.4,1.9c0.8,0,1.5-0.6,2.1-1.5l0.7-4.4c-0.5-0.2-0.8-0.2-1.3-0.2C81.8,94.9,81,97.3,81,99.1z"/>
<path class="st8" d="M89.9,99.8c-0.1,0.8,0.1,1.1,0.7,1.1c0.4,0,0.7-0.1,1.1-0.4l0.5,1c-0.6,0.4-1.1,0.5-1.8,0.5
	c-1.4,0-2.1-0.8-1.9-2.3l0.7-4.7h-1.4L88,94h1.4l0.5-1.8L91,92l-0.3,2h1.9l-0.3,1.1h-1.7L89.9,99.8z"/>
<path class="st8" d="M99.4,101.9h-1.2l0.1-1.5c-0.7,1-1.5,1.6-2.6,1.6c-1.4,0-2.1-0.9-1.9-2.5l0.8-5.6h1.4l-0.8,5.6
	c-0.1,1.1,0.1,1.4,0.8,1.4c1,0,1.8-0.9,2.4-1.9l0.7-5.1h1.4L99.4,101.9z"/>
<path class="st8" d="M107.5,93.9l-0.4,1.3c-0.2-0.1-0.4-0.1-0.6-0.1c-1,0-1.7,0.9-2.3,2.5l-0.6,4.2h-1.4l1.1-7.9h1.2l-0.1,1.6
	c0.6-1.2,1.4-1.8,2.3-1.8C106.9,93.8,107.2,93.9,107.5,93.9z"/>
<path class="st8" d="M109.1,99c0,1.4,0.7,2,1.7,2c0.7,0,1.4-0.2,2.1-0.7l0.6,0.9c-0.9,0.6-1.8,1-2.8,1c-1.9,0-3-1.2-3-3.2
	c0-2.2,1.1-5,4.1-5c1.7,0,2.5,1,2.5,2C114.2,98,111.9,98.7,109.1,99z M112.8,95.9c0-0.4-0.2-1-1.1-1c-1.6,0-2.3,1.6-2.5,3
	C111.4,97.6,112.8,97.2,112.8,95.9z"/>
<path class="st8" d="M121.2,94.8l-0.7,0.8c-0.6-0.5-1.3-0.7-2-0.7c-1,0-1.6,0.4-1.6,1.1c0,0.6,0.5,0.9,1.6,1.2
	c1.5,0.5,2.2,1.1,2.2,2.4c0,1.8-1.6,2.5-3.3,2.5c-1.4,0-2.3-0.5-2.9-1.1l0.8-0.8c0.6,0.5,1.3,0.8,2.2,0.8c1.4,0,1.8-0.8,1.8-1.3
	c0-0.8-0.4-1.1-1.7-1.5c-1.5-0.5-2.1-1.1-2.1-2.2c0-1,0.9-2.2,3-2.2C119.8,93.8,120.6,94.2,121.2,94.8z"/>
</svg>
