<?xml version="1.0" encoding="utf-8"?>
<svg version="1.1" xmlns="http://www.w3.org/2000/svg" width="640" height="256">
<style type="text/css">
	.st0{opacity:0.2}
	.st1{stroke:#C45814;stroke-width:8}
	.st2{fill:#C45814}
	.st3{stroke:#3A2D72;stroke-width:8}
	.st4{fill:#3A2D72}
	.st5{fill:#C45814}
	.st6{fill:#FFFFFF}
	.st7{fill:#3E2C70}
	.st8{fill:#000}
</style>
<g class="st0">
<line class="st1" x1="100.47" y1="78.35" x2="100.47" y2="247.82"/>
<polygon class="st2" points="90.5,81.27 100.47,64 110.44,81.27"/>
<line class="st3" x1="42.33" y1="233.47" x2="42.33" y2="64"/>
<polygon class="st4" points="52.31,230.55 42.33,247.82 32.36,230.55"/>
</g>
<path class="st4" d="M162.13,215.64c0,2.12,0.57,3,2.15,3h229.93c2.31,0,5.2,0.89,5.71,2.37c0.51-1.49,3.33-2.37,5.64-2.37H635.6
c1.58,0,2.15-0.88,2.15-3H640c0,4.27-1.39,5.75-4.71,5.75h-229.5c-1.74,0-4.66,2.8-4.66,4.47h-2.4c0-1.68-2.99-4.47-4.73-4.47
H164.6c-3.32,0-4.71-1.49-4.71-5.75H162.13z"/>
<polygon class="st0 st5" points="512,64 159.89,144.81 639.89,144.81 608,64"/>
<rect x="128" class="st4" width="384" height="64"/>
<rect x="160" y="144.81" class="st4" width="240" height="64"/>
<rect x="400" y="144.81" class="st2" width="240" height="64"/>
<rect x="512" class="st2" width="96" height="64"/>
<path class="st6" d="M200.78,27.46l-1.4,1.9c-0.66-0.5-1.22-0.77-1.9-0.77c-1.24,0-1.96,0.88-1.96,3.86
c0,2.89,0.81,3.64,1.96,3.64c0.66,0,1.15-0.25,1.83-0.72l1.49,1.99c-0.95,0.86-2.1,1.4-3.54,1.4c-3.3,0-5.31-2.35-5.31-6.28
c0-4,2.03-6.48,5.26-6.48C198.66,25.99,199.81,26.49,200.78,27.46z"/>
<path class="st6" d="M211.37,32.38c0,4.06-1.96,6.37-5.17,6.37c-3.18,0-5.17-2.12-5.17-6.39c0-4.11,1.96-6.37,5.17-6.37
C209.38,25.99,211.37,28.09,211.37,32.38z M204.55,32.36c0,2.91,0.52,3.88,1.65,3.88s1.67-1.02,1.67-3.86
c0-2.89-0.54-3.86-1.67-3.86C205.09,28.52,204.55,29.54,204.55,32.36z"/>
<path class="st6" d="M222.32,29.63v8.74h-3.41v-8.36c0-1.08-0.29-1.42-0.79-1.42c-0.56,0-1.08,0.54-1.6,1.45v8.33h-3.41V26.38
h2.98l0.25,1.42c0.81-1.17,1.76-1.81,3.09-1.81C221.24,25.99,222.32,27.33,222.32,29.63z"/>
<path class="st6" d="M231.19,37.8c-0.81,0.65-1.99,0.95-2.94,0.95c-2.44,0-3.57-1.51-3.57-3.77v-6.23h-1.33v-2.37h1.33v-2.62
l3.41-0.38v3h2.37l-0.36,2.37h-2.01v6.19c0,0.75,0.32,1.11,0.93,1.11c0.36,0,0.66-0.11,1.04-0.32L231.19,37.8z"/>
<path class="st6" d="M239.01,26.22l-0.56,3.27c-0.29-0.09-0.57-0.14-0.9-0.14c-1.26,0-1.74,1.08-2.08,2.69v6.32h-3.41V26.38h2.98
l0.25,2.06c0.54-1.51,1.42-2.39,2.71-2.39C238.37,26.04,238.69,26.11,239.01,26.22z"/>
<path class="st6" d="M249.69,32.38c0,4.06-1.96,6.37-5.17,6.37c-3.18,0-5.17-2.12-5.17-6.39c0-4.11,1.96-6.37,5.17-6.37
C247.7,25.99,249.69,28.09,249.69,32.38z M242.87,32.36c0,2.91,0.52,3.88,1.65,3.88s1.67-1.02,1.67-3.86
c0-2.89-0.54-3.86-1.67-3.86C243.41,28.52,242.87,29.54,242.87,32.36z"/>
<path class="st6" d="M251.31,35.59V21.61l3.41-0.36v14.18c0,0.41,0.16,0.61,0.52,0.61c0.18,0,0.34-0.02,0.45-0.07l0.63,2.35
c-0.45,0.23-1.17,0.43-1.94,0.43C252.44,38.75,251.31,37.53,251.31,35.59z"/>
<path class="st6" d="M257.27,35.59V21.61l3.41-0.36v14.18c0,0.41,0.16,0.61,0.52,0.61c0.18,0,0.34-0.02,0.45-0.07l0.63,2.35
c-0.45,0.23-1.17,0.43-1.94,0.43C258.4,38.75,257.27,37.53,257.27,35.59z"/>
<path class="st6" d="M272.53,33.38h-6.41c0.18,2.28,0.97,2.87,2.17,2.87c0.93,0,1.65-0.32,2.53-0.99l1.38,1.85
c-0.99,0.95-2.37,1.65-4.16,1.65c-3.55,0-5.33-2.46-5.33-6.3c0-3.79,1.72-6.46,4.99-6.46c2.98,0,4.9,2.08,4.9,6.14
C272.6,32.52,272.56,33.04,272.53,33.38z M269.28,31.17c-0.02-1.92-0.41-2.91-1.54-2.91c-0.95,0-1.51,0.68-1.63,3.09h3.16V31.17z"
/>
<path class="st6" d="M283.8,21.61v16.76h-3.03l-0.13-1.31c-0.61,0.95-1.49,1.69-2.89,1.69c-2.64,0-3.97-2.35-3.97-6.39
c0-3.88,1.74-6.37,4.25-6.37c1.02,0,1.81,0.45,2.37,1.13v-5.87L283.8,21.61z M280.39,35.03v-5.56c-0.41-0.61-0.81-0.97-1.4-0.97
c-0.97,0-1.69,0.95-1.69,3.86c0,3.14,0.66,3.88,1.54,3.88C279.49,36.25,279.96,35.82,280.39,35.03z"/>
<path class="st6" d="M297.44,26.22l-0.56,3.27c-0.29-0.09-0.57-0.14-0.9-0.14c-1.26,0-1.74,1.08-2.08,2.69v6.32h-3.41V26.38h2.98
l0.25,2.06c0.54-1.51,1.42-2.39,2.71-2.39C296.8,26.04,297.12,26.11,297.44,26.22z"/>
<path class="st6" d="M307.6,33.38h-6.41c0.18,2.28,0.97,2.87,2.17,2.87c0.93,0,1.65-0.32,2.53-0.99l1.38,1.85
c-0.99,0.95-2.37,1.65-4.16,1.65c-3.55,0-5.33-2.46-5.33-6.3c0-3.79,1.72-6.46,4.99-6.46c2.98,0,4.9,2.08,4.9,6.14
C307.67,32.52,307.62,33.04,307.6,33.38z M304.35,31.17c-0.02-1.92-0.41-2.91-1.54-2.91c-0.95,0-1.51,0.68-1.63,3.09h3.16V31.17z"
/>
<path class="st6" d="M316.97,27.46l-1.24,1.85c-0.81-0.54-1.58-0.88-2.39-0.88c-0.79,0-1.26,0.38-1.26,1.02
c0,0.68,0.36,0.99,2.14,1.69c2.01,0.75,3.12,1.72,3.12,3.7c0,2.44-2.01,3.91-4.72,3.91c-1.81,0-3.36-0.68-4.43-1.76l1.6-1.78
c0.79,0.63,1.72,1.13,2.67,1.13c0.88,0,1.4-0.45,1.4-1.2c0-0.84-0.36-1.2-2.12-1.85c-2.15-0.81-3.03-1.85-3.03-3.59
c0-2.1,1.58-3.7,4.34-3.7C314.62,25.99,315.97,26.56,316.97,27.46z"/>
<path class="st6" d="M328.1,33.38h-6.41c0.18,2.28,0.97,2.87,2.17,2.87c0.93,0,1.65-0.32,2.53-0.99l1.38,1.85
c-0.99,0.95-2.37,1.65-4.16,1.65c-3.55,0-5.33-2.46-5.33-6.3c0-3.79,1.72-6.46,4.99-6.46c2.98,0,4.9,2.08,4.9,6.14
C328.17,32.52,328.12,33.04,328.1,33.38z M324.85,31.17c-0.02-1.92-0.41-2.91-1.54-2.91c-0.95,0-1.51,0.68-1.63,3.09h3.16V31.17z"
/>
<path class="st6" d="M338.96,36.45l-0.7,2.24c-1.29-0.11-2.15-0.54-2.6-1.65c-0.81,1.24-1.94,1.72-3.14,1.72
c-2.08,0-3.39-1.49-3.39-3.75c0-2.6,1.72-4.02,4.95-4.02h0.88v-0.61c0-1.47-0.43-1.92-1.63-1.92c-0.79,0-1.67,0.23-2.71,0.59
l-0.75-2.15c1.29-0.59,2.8-0.9,4.09-0.9c2.94,0,4.31,1.35,4.31,4.2v4.92C338.28,35.93,338.46,36.25,338.96,36.45z M334.96,35.19
v-2.3h-0.56c-1.31,0-1.92,0.59-1.92,1.83c0,1.06,0.41,1.63,1.08,1.63C334.17,36.34,334.64,35.91,334.96,35.19z"/>
<path class="st6" d="M347.51,26.22l-0.57,3.27c-0.29-0.09-0.56-0.14-0.9-0.14c-1.27,0-1.74,1.08-2.08,2.69v6.32h-3.41V26.38h2.98
l0.25,2.06c0.54-1.51,1.42-2.39,2.71-2.39C346.88,26.04,347.2,26.11,347.51,26.22z"/>
<path class="st6" d="M356.68,27.46l-1.4,1.9c-0.66-0.5-1.22-0.77-1.9-0.77c-1.24,0-1.96,0.88-1.96,3.86
c0,2.89,0.81,3.64,1.96,3.64c0.66,0,1.15-0.25,1.83-0.72l1.49,1.99c-0.95,0.86-2.1,1.4-3.54,1.4c-3.3,0-5.31-2.35-5.31-6.28
c0-4,2.03-6.48,5.26-6.48C354.56,25.99,355.71,26.49,356.68,27.46z"/>
<path class="st6" d="M367,29.63v8.74h-3.41v-8.36c0-1.08-0.29-1.42-0.79-1.42c-0.56,0-1.08,0.54-1.6,1.45v8.33h-3.41V21.61
l3.41-0.34v6.41c0.81-1.13,1.72-1.69,2.91-1.69C365.92,25.99,367,27.33,367,29.63z"/>
<path class="st6" d="M383.57,32.34c0,3.88-1.58,6.41-4.09,6.41c-1.02,0-1.83-0.43-2.48-1.24V43l-3.41,0.36V26.38h3.03l0.16,1.33
c0.81-1.22,1.83-1.72,3-1.72C382.33,25.99,383.57,28.3,383.57,32.34z M380.07,32.38c0-3.14-0.56-3.88-1.45-3.88
c-0.66,0-1.2,0.52-1.63,1.31v5.44c0.41,0.63,0.88,0.99,1.47,0.99C379.42,36.25,380.07,35.3,380.07,32.38z"/>
<path class="st6" d="M392.29,26.22l-0.57,3.27c-0.29-0.09-0.56-0.14-0.9-0.14c-1.27,0-1.74,1.08-2.08,2.69v6.32h-3.41V26.38h2.98
l0.25,2.06c0.54-1.51,1.42-2.39,2.71-2.39C391.65,26.04,391.97,26.11,392.29,26.22z"/>
<path class="st6" d="M402.97,32.38c0,4.06-1.96,6.37-5.17,6.37c-3.18,0-5.17-2.12-5.17-6.39c0-4.11,1.96-6.37,5.17-6.37
C400.98,25.99,402.97,28.09,402.97,32.38z M396.15,32.36c0,2.91,0.52,3.88,1.65,3.88s1.67-1.02,1.67-3.86
c0-2.89-0.54-3.86-1.67-3.86C396.69,28.52,396.15,29.54,396.15,32.36z"/>
<path class="st6" d="M414.68,32.38c0,3.88-1.54,6.37-4.11,6.37c-1.13,0-2.06-0.56-2.69-1.51l-0.16,1.13h-3.03V21.61l3.41-0.36
v6.28c0.63-0.95,1.63-1.54,2.82-1.54C413.37,25.99,414.68,28.18,414.68,32.38z M411.18,32.38c0-3.25-0.61-3.88-1.45-3.88
c-0.63,0-1.17,0.54-1.63,1.33v5.35c0.36,0.65,0.86,1.08,1.47,1.08C410.53,36.27,411.18,35.41,411.18,32.38z"/>
<path class="st6" d="M416.33,35.59V21.61l3.41-0.36v14.18c0,0.41,0.16,0.61,0.52,0.61c0.18,0,0.34-0.02,0.45-0.07l0.63,2.35
c-0.45,0.23-1.17,0.43-1.94,0.43C417.46,38.75,416.33,37.53,416.33,35.59z"/>
<path class="st6" d="M431.59,33.38h-6.41c0.18,2.28,0.97,2.87,2.17,2.87c0.93,0,1.65-0.32,2.53-0.99l1.38,1.85
c-0.99,0.95-2.37,1.65-4.16,1.65c-3.55,0-5.33-2.46-5.33-6.3c0-3.79,1.72-6.46,4.99-6.46c2.98,0,4.9,2.08,4.9,6.14
C431.66,32.52,431.62,33.04,431.59,33.38z M428.34,31.17c-0.02-1.92-0.41-2.91-1.54-2.91c-0.95,0-1.51,0.68-1.63,3.09h3.16V31.17z
"/>
<path class="st6" d="M447.65,29.63v8.74h-3.34v-8.38c0-1.08-0.27-1.42-0.75-1.42c-0.54,0-0.97,0.5-1.42,1.35v8.45h-3.32v-8.38
c0-1.08-0.29-1.42-0.75-1.42c-0.56,0-0.99,0.5-1.42,1.35v8.45h-3.37V26.38h2.98l0.2,1.45c0.81-1.17,1.74-1.83,2.98-1.83
c1.15,0,2.03,0.7,2.44,1.92c0.81-1.24,1.76-1.92,3.05-1.92C446.56,25.99,447.65,27.33,447.65,29.63z"/>
<path class="st7" d="M300.81,84.22c0,2.46-2.17,4.52-5.96,4.52c-3.68,0-5.83-2.01-5.83-4.45c0-1.81,1.08-3.03,2.84-3.79
c-1.6-0.95-2.24-2.21-2.24-3.61c0-2.46,2.24-4.11,5.31-4.11c3.03,0,5.29,1.45,5.29,3.93c0,1.31-0.75,2.55-2.44,3.46
C299.86,81.15,300.81,82.48,300.81,84.22z M297.24,84.2c0-1.24-0.63-1.83-2.35-2.46l-0.77-0.27c-1.02,0.59-1.51,1.49-1.51,2.64
c0,1.27,0.9,2.08,2.35,2.08C296.48,86.19,297.24,85.3,297.24,84.2z M293.09,76.93c0,1.06,0.61,1.63,1.85,2.15l0.5,0.18
c1.04-0.72,1.33-1.45,1.33-2.37c0-0.99-0.61-1.69-1.81-1.69C293.83,75.19,293.09,75.77,293.09,76.93z"/>
<path class="st7" d="M313.86,80.74c0,5.1-2.01,7.99-5.76,7.99c-3.75,0-5.76-2.89-5.76-7.99c0-5.13,2.01-7.97,5.76-7.97
C311.85,72.77,313.86,75.62,313.86,80.74z M306,80.74c0,4.04,0.61,5.35,2.1,5.35c1.47,0,2.1-1.22,2.1-5.35
c0-4.16-0.63-5.33-2.1-5.33C306.61,75.41,306,76.7,306,80.74z"/>
<path class="st7" d="M323.39,76.84c0,2.48-1.76,4.07-4.02,4.07c-2.24,0-4.02-1.58-4.02-4.07s1.78-4.06,4.02-4.06
C321.63,72.77,323.39,74.35,323.39,76.84z M317.9,76.84c0,0.95,0.29,1.92,1.47,1.92c1.17,0,1.45-0.95,1.45-1.92
c0-0.95-0.27-1.92-1.45-1.92C318.19,74.92,317.9,75.87,317.9,76.84z M330.75,73.49l-10.46,15.76l-2.19-1.4l10.46-15.76
L330.75,73.49z M333.44,84.67c0,2.51-1.76,4.06-4.02,4.06c-2.26,0-4.04-1.56-4.04-4.06c0-2.48,1.78-4.04,4.04-4.04
C331.68,80.63,333.44,82.19,333.44,84.67z M327.95,84.67c0,0.95,0.29,1.94,1.47,1.94c1.17,0,1.45-0.97,1.45-1.94
c0-0.95-0.27-1.9-1.45-1.9C328.24,82.78,327.95,83.72,327.95,84.67z"/>
<path class="st4" d="M347.28,243.26c0,2.67-2.46,4.95-6.46,4.95c-3.37,0-5.24-1.78-5.24-4.13c0-1.54,0.86-3.14,3.41-4.16
c-1.24-0.83-1.76-1.9-1.76-3.09c0-2.39,2.01-4.58,5.69-4.58c2.8,0,4.83,1.35,4.83,3.64c0,1.35-0.79,2.73-2.96,3.79
C346.46,240.55,347.28,241.77,347.28,243.26z M343.75,243.17c0-0.93-0.56-1.42-1.99-1.99l-0.68-0.25
c-1.6,0.83-1.96,2.12-1.96,2.98c0,1.06,0.75,1.74,2.01,1.74C342.83,245.65,343.75,244.53,343.75,243.17z M340.59,236.71
c0,0.88,0.52,1.4,1.54,1.85l0.43,0.16c1.56-0.97,1.78-2.01,1.78-2.71c0-0.81-0.54-1.36-1.56-1.36
C341.07,234.66,340.59,235.88,340.59,236.71z"/>
<path class="st4" d="M360.69,238.02c0,4.04-1.51,10.18-6.84,10.18c-3.16,0-4.83-2.08-4.83-5.83c0-4.09,1.51-10.14,6.84-10.14
C358.99,232.24,360.69,234.29,360.69,238.02z M352.76,240.3c-0.16,1.17-0.25,2.1-0.25,2.82c0,1.78,0.52,2.44,1.54,2.44
c1.49,0,2.3-1.27,2.89-5.44c0.18-1.22,0.27-2.14,0.27-2.84c0-1.81-0.52-2.39-1.54-2.39C354.16,234.88,353.33,236.21,352.76,240.3z
"/>
<path class="st4" d="M370.55,235.67c0,2.03-1.31,4.7-4.49,4.7c-2.03,0-3.5-1.36-3.5-3.46c0-2.06,1.38-4.67,4.49-4.67
C369.08,232.24,370.55,233.57,370.55,235.67z M378.23,232.96l-12.49,15.76l-1.99-1.4l12.49-15.76L378.23,232.96z M365.07,236.87
c0,0.75,0.27,1.36,1.17,1.36c1.47,0,1.81-1.54,1.81-2.51c0-0.72-0.27-1.33-1.15-1.33C365.34,234.39,365.07,236.03,365.07,236.87z
M379.34,243.51c0,2.03-1.31,4.7-4.49,4.7c-2.03,0-3.48-1.33-3.48-3.43c0-2.05,1.35-4.67,4.49-4.67
C377.89,240.1,379.34,241.43,379.34,243.51z M373.85,244.71c0,0.75,0.27,1.38,1.17,1.38c1.47,0,1.81-1.56,1.81-2.51
c0-0.75-0.27-1.35-1.15-1.35C374.12,242.22,373.85,243.87,373.85,244.71z"/>
<path class="st4" d="M397.76,240.55c-0.02,3.3-1.65,7.66-6.68,7.66c-3.18,0-5.01-1.92-5.01-5.1c0-3.34,1.63-7.66,6.69-7.66
C395.93,235.45,397.78,237.41,397.76,240.55z M389.65,243.33c0,1.58,0.57,2.26,1.67,2.26c2.35,0,2.82-3.43,2.82-5.26
c0.02-1.58-0.54-2.26-1.65-2.26C390.13,238.07,389.65,241.5,389.65,243.33z"/>
<path class="st4" d="M404.67,234.95l-0.11,0.88h2.78l-0.72,2.48h-2.42l-1.15,8.2c-0.54,3.91-2.69,5.28-5.58,6.32l-0.88-2.57
c1.69-0.66,2.64-1.42,2.94-3.61l1.17-8.33h-1.78l0.34-2.48h1.78l0.16-1.11c0.32-2.3,2.01-4.04,4.92-4.04
c1.45,0,2.53,0.45,3.34,0.99l-1.24,2.14c-0.61-0.41-1.29-0.5-1.81-0.5C405.37,233.32,404.83,233.8,404.67,234.95z"/>
<path class="st4" d="M415.48,243.46c0.09,1.58,0.95,2.12,2.12,2.12c1.02,0,1.94-0.36,3.05-1.11l1.26,2.12
c-1.31,0.95-2.91,1.6-4.77,1.6c-3.5,0-5.22-2.03-5.22-5.08c0-3.25,1.76-7.68,6.8-7.68c2.91,0,4.43,1.47,4.43,3.27
C423.16,242.09,419.23,243.1,415.48,243.46z M419.61,238.92c0-0.54-0.27-1.11-1.22-1.11c-1.67,0-2.46,1.76-2.75,3.48
C418.62,241.07,419.61,239.94,419.61,238.92z"/>
<path class="st4" d="M429.68,234.95l-0.11,0.88h2.78l-0.72,2.48h-2.42l-1.15,8.2c-0.54,3.91-2.69,5.28-5.58,6.32l-0.88-2.57
c1.69-0.66,2.64-1.42,2.94-3.61l1.17-8.33h-1.78l0.34-2.48h1.78l0.16-1.11c0.32-2.3,2.01-4.04,4.92-4.04
c1.45,0,2.53,0.45,3.34,0.99l-1.24,2.14c-0.61-0.41-1.29-0.5-1.81-0.5C430.38,233.32,429.84,233.8,429.68,234.95z"/>
<path class="st4" d="M437.49,234.95l-0.11,0.88h2.78l-0.72,2.48h-2.42l-1.15,8.2c-0.54,3.91-2.69,5.28-5.58,6.32l-0.88-2.57
c1.69-0.66,2.64-1.42,2.94-3.61l1.17-8.33h-1.78l0.34-2.48h1.78l0.16-1.11c0.32-2.3,2.01-4.04,4.92-4.04
c1.45,0,2.53,0.45,3.34,0.99l-1.24,2.14c-0.61-0.41-1.29-0.5-1.81-0.5C438.19,233.32,437.65,233.8,437.49,234.95z"/>
<path class="st4" d="M451.13,240.55c-0.02,3.3-1.65,7.66-6.68,7.66c-3.18,0-5.01-1.92-5.01-5.1c0-3.34,1.63-7.66,6.69-7.66
C449.3,235.45,451.15,237.41,451.13,240.55z M443.02,243.33c0,1.58,0.57,2.26,1.67,2.26c2.35,0,2.82-3.43,2.82-5.26
c0.02-1.58-0.54-2.26-1.65-2.26C443.5,238.07,443.02,241.5,443.02,243.33z"/>
<path class="st4" d="M461.56,235.67l-1.02,3.43c-0.36-0.09-0.63-0.16-0.99-0.16c-1.49,0-2.3,1.42-2.96,3.32l-0.79,5.56h-3.5
l1.67-11.99h3.05l-0.04,2.24c0.81-1.65,2.15-2.57,3.39-2.57C460.84,235.49,461.18,235.56,461.56,235.67z"/>
<path class="st4" d="M466.1,243.85c-0.16,1.15,0.11,1.51,0.81,1.51c0.43,0,0.88-0.11,1.35-0.38l0.95,2.35
c-1.02,0.59-2.28,0.88-3.3,0.88c-2.64-0.02-3.73-1.56-3.34-4.36l0.79-5.53h-1.65l0.34-2.48h1.81l0.75-2.67l3.03-0.34l-0.43,3h2.71
l-0.7,2.48h-2.35L466.1,243.85z"/>
<path class="st4" d="M480.93,235.13c0,4.45-5.17,3.7-5.17,6.46c0,0.13,0,0.34,0.04,0.5l-3.09,0.47c-0.11-0.34-0.18-0.77-0.18-1.08
c0-3.88,4.7-3.5,4.7-5.89c0-0.63-0.47-0.99-1.33-0.99c-0.93,0-1.9,0.5-2.84,1.4l-2.01-1.83c1.47-1.49,3.23-2.37,5.49-2.37
C479.51,231.79,480.93,233.3,480.93,235.13z M476.17,245.95c0,1.22-0.99,2.26-2.26,2.26c-1.06,0-1.78-0.77-1.78-1.85
c0-1.2,0.99-2.24,2.26-2.24C475.42,244.12,476.17,244.89,476.17,245.95z"/>
<path class="st2" d="M548.5,77.13c0,2.37-1.17,4.16-5.94,8.49h6.26l-0.36,2.73h-9.94v-2.53c5.13-5.06,6.32-6.44,6.32-8.33
c0-1.24-0.77-1.99-1.96-1.99c-1.11,0-1.88,0.5-2.76,1.58L538,75.41c1.22-1.6,2.96-2.64,5.24-2.64
C546.65,72.77,548.5,74.76,548.5,77.13z"/>
<path class="st2" d="M561.91,80.74c0,5.1-2.01,7.99-5.76,7.99c-3.75,0-5.76-2.89-5.76-7.99c0-5.13,2.01-7.97,5.76-7.97
C559.9,72.77,561.91,75.62,561.91,80.74z M554.05,80.74c0,4.04,0.61,5.35,2.1,5.35c1.47,0,2.1-1.22,2.1-5.35
c0-4.16-0.63-5.33-2.1-5.33C554.66,75.41,554.05,76.7,554.05,80.74z"/>
<path class="st2" d="M571.44,76.84c0,2.48-1.76,4.07-4.02,4.07c-2.24,0-4.02-1.58-4.02-4.07s1.78-4.06,4.02-4.06
C569.68,72.77,571.44,74.35,571.44,76.84z M565.95,76.84c0,0.95,0.29,1.92,1.47,1.92c1.17,0,1.45-0.95,1.45-1.92
c0-0.95-0.27-1.92-1.45-1.92C566.24,74.92,565.95,75.87,565.95,76.84z M578.8,73.49l-10.46,15.76l-2.19-1.4l10.46-15.76
L578.8,73.49z M581.49,84.67c0,2.51-1.76,4.06-4.02,4.06c-2.26,0-4.04-1.56-4.04-4.06c0-2.48,1.78-4.04,4.04-4.04
C579.73,80.63,581.49,82.19,581.49,84.67z M576,84.67c0,0.95,0.29,1.94,1.47,1.94c1.17,0,1.45-0.97,1.45-1.94
c0-0.95-0.27-1.9-1.45-1.9C576.29,82.78,576,83.72,576,84.67z"/>
<path class="st6" d="M534.75,32.34c0,3.88-1.58,6.41-4.09,6.41c-1.02,0-1.83-0.43-2.48-1.24V43l-3.41,0.36V26.38h3.03l0.16,1.33
c0.81-1.22,1.83-1.72,3-1.72C533.51,25.99,534.75,28.3,534.75,32.34z M531.25,32.38c0-3.14-0.56-3.88-1.45-3.88
c-0.66,0-1.2,0.52-1.63,1.31v5.44c0.41,0.63,0.88,0.99,1.47,0.99C530.6,36.25,531.25,35.3,531.25,32.38z"/>
<path class="st6" d="M543.47,26.22l-0.57,3.27c-0.29-0.09-0.56-0.14-0.9-0.14c-1.27,0-1.74,1.08-2.08,2.69v6.32h-3.41V26.38h2.98
l0.25,2.06c0.54-1.51,1.42-2.39,2.71-2.39C542.83,26.04,543.15,26.11,543.47,26.22z"/>
<path class="st6" d="M553.04,36.45l-0.7,2.24c-1.29-0.11-2.15-0.54-2.6-1.65c-0.81,1.24-1.94,1.72-3.14,1.72
c-2.08,0-3.39-1.49-3.39-3.75c0-2.6,1.72-4.02,4.95-4.02h0.88v-0.61c0-1.47-0.43-1.92-1.63-1.92c-0.79,0-1.67,0.23-2.71,0.59
l-0.75-2.15c1.29-0.59,2.8-0.9,4.09-0.9c2.94,0,4.31,1.35,4.31,4.2v4.92C552.36,35.93,552.54,36.25,553.04,36.45z M549.04,35.19
v-2.3h-0.56c-1.31,0-1.92,0.59-1.92,1.83c0,1.06,0.41,1.63,1.08,1.63C548.25,36.34,548.73,35.91,549.04,35.19z"/>
<path class="st6" d="M563,27.46l-1.4,1.9c-0.66-0.5-1.22-0.77-1.9-0.77c-1.24,0-1.96,0.88-1.96,3.86c0,2.89,0.81,3.64,1.96,3.64
c0.66,0,1.15-0.25,1.83-0.72l1.49,1.99c-0.95,0.86-2.1,1.4-3.54,1.4c-3.3,0-5.31-2.35-5.31-6.28c0-4,2.03-6.48,5.26-6.48
C560.87,25.99,562.02,26.49,563,27.46z"/>
<path class="st6" d="M570.85,37.8c-0.81,0.65-1.99,0.95-2.94,0.95c-2.44,0-3.57-1.51-3.57-3.77v-6.23h-1.33v-2.37h1.33v-2.62
l3.41-0.38v3h2.37l-0.36,2.37h-2.01v6.19c0,0.75,0.32,1.11,0.93,1.11c0.36,0,0.66-0.11,1.04-0.32L570.85,37.8z"/>
<path class="st6" d="M575.37,22.11c0,1.11-0.79,1.94-1.94,1.94c-1.17,0-1.96-0.84-1.96-1.94s0.79-1.94,1.96-1.94
C574.58,20.17,575.37,21,575.37,22.11z M575.12,38.37h-3.41V26.38h3.41V38.37z"/>
<path class="st6" d="M585.69,27.46l-1.4,1.9c-0.66-0.5-1.22-0.77-1.9-0.77c-1.24,0-1.96,0.88-1.96,3.86
c0,2.89,0.81,3.64,1.96,3.64c0.66,0,1.15-0.25,1.83-0.72l1.49,1.99c-0.95,0.86-2.1,1.4-3.55,1.4c-3.3,0-5.31-2.35-5.31-6.28
c0-4,2.03-6.48,5.26-6.48C583.56,25.99,584.71,26.49,585.69,27.46z"/>
<path class="st6" d="M595.75,33.38h-6.41c0.18,2.28,0.97,2.87,2.17,2.87c0.93,0,1.65-0.32,2.53-0.99l1.38,1.85
c-0.99,0.95-2.37,1.65-4.16,1.65c-3.55,0-5.33-2.46-5.33-6.3c0-3.79,1.72-6.46,4.99-6.46c2.98,0,4.9,2.08,4.9,6.14
C595.82,32.52,595.78,33.04,595.75,33.38z M592.5,31.17c-0.02-1.92-0.41-2.91-1.54-2.91c-0.95,0-1.51,0.68-1.63,3.09h3.16V31.17z"
/>
<path class="st6" d="M185.28,175.57v8.74h-3.34v-8.38c0-1.08-0.27-1.42-0.75-1.42c-0.54,0-0.97,0.5-1.42,1.35v8.45h-3.32v-8.38
c0-1.08-0.29-1.42-0.75-1.42c-0.57,0-0.99,0.5-1.42,1.35v8.45h-3.37v-11.99h2.98l0.2,1.45c0.81-1.17,1.74-1.83,2.98-1.83
c1.15,0,2.03,0.7,2.44,1.92c0.81-1.24,1.76-1.92,3.05-1.92C184.2,171.93,185.28,173.27,185.28,175.57z"/>
<path class="st6" d="M197.29,178.33c0,4.06-1.96,6.37-5.17,6.37c-3.18,0-5.17-2.12-5.17-6.39c0-4.11,1.96-6.37,5.17-6.37
C195.31,171.93,197.29,174.03,197.29,178.33z M190.47,178.3c0,2.91,0.52,3.88,1.65,3.88s1.67-1.02,1.67-3.86
c0-2.89-0.54-3.86-1.67-3.86C191.01,174.46,190.47,175.48,190.47,178.3z"/>
<path class="st6" d="M205.98,172.16l-0.56,3.27c-0.29-0.09-0.57-0.14-0.9-0.14c-1.26,0-1.74,1.08-2.08,2.69v6.32h-3.41v-11.99
h2.98l0.25,2.05c0.54-1.51,1.42-2.39,2.71-2.39C205.35,171.98,205.67,172.05,205.98,172.16z"/>
<path class="st6" d="M216.15,179.32h-6.41c0.18,2.28,0.97,2.87,2.17,2.87c0.93,0,1.65-0.32,2.53-0.99l1.38,1.85
c-0.99,0.95-2.37,1.65-4.16,1.65c-3.55,0-5.33-2.46-5.33-6.3c0-3.79,1.72-6.46,4.99-6.46c2.98,0,4.9,2.08,4.9,6.14
C216.21,178.46,216.17,178.98,216.15,179.32z M212.89,177.11c-0.02-1.92-0.41-2.91-1.54-2.91c-0.95,0-1.51,0.68-1.63,3.09h3.16
V177.11z"/>
<path class="st6" d="M229.26,172.16l-0.57,3.27c-0.29-0.09-0.56-0.14-0.9-0.14c-1.27,0-1.74,1.08-2.08,2.69v6.32h-3.41v-11.99
h2.98l0.25,2.05c0.54-1.51,1.42-2.39,2.71-2.39C228.63,171.98,228.95,172.05,229.26,172.16z"/>
<path class="st6" d="M239.42,179.32h-6.41c0.18,2.28,0.97,2.87,2.17,2.87c0.93,0,1.65-0.32,2.53-0.99l1.38,1.85
c-0.99,0.95-2.37,1.65-4.16,1.65c-3.55,0-5.33-2.46-5.33-6.3c0-3.79,1.72-6.46,4.99-6.46c2.98,0,4.9,2.08,4.9,6.14
C239.49,178.46,239.45,178.98,239.42,179.32z M236.17,177.11c-0.02-1.92-0.41-2.91-1.54-2.91c-0.95,0-1.51,0.68-1.63,3.09h3.16
V177.11z"/>
<path class="st6" d="M248.79,173.4l-1.24,1.85c-0.81-0.54-1.58-0.88-2.39-0.88c-0.79,0-1.26,0.38-1.26,1.02
c0,0.68,0.36,0.99,2.14,1.69c2.01,0.75,3.12,1.72,3.12,3.7c0,2.44-2.01,3.91-4.72,3.91c-1.81,0-3.36-0.68-4.43-1.76l1.6-1.78
c0.79,0.63,1.72,1.13,2.67,1.13c0.88,0,1.4-0.45,1.4-1.2c0-0.84-0.36-1.2-2.12-1.85c-2.15-0.81-3.03-1.85-3.03-3.59
c0-2.1,1.58-3.7,4.34-3.7C246.44,171.93,247.8,172.5,248.79,173.4z"/>
<path class="st6" d="M259.92,179.32h-6.41c0.18,2.28,0.97,2.87,2.17,2.87c0.93,0,1.65-0.32,2.53-0.99l1.38,1.85
c-0.99,0.95-2.37,1.65-4.16,1.65c-3.55,0-5.33-2.46-5.33-6.3c0-3.79,1.72-6.46,4.99-6.46c2.98,0,4.9,2.08,4.9,6.14
C259.99,178.46,259.95,178.98,259.92,179.32z M256.67,177.11c-0.02-1.92-0.41-2.91-1.54-2.91c-0.95,0-1.51,0.68-1.63,3.09h3.16
V177.11z"/>
<path class="st6" d="M270.78,182.39l-0.7,2.24c-1.29-0.11-2.15-0.54-2.6-1.65c-0.81,1.24-1.94,1.72-3.14,1.72
c-2.08,0-3.39-1.49-3.39-3.75c0-2.6,1.72-4.02,4.95-4.02h0.88v-0.61c0-1.47-0.43-1.92-1.63-1.92c-0.79,0-1.67,0.23-2.71,0.59
l-0.75-2.14c1.29-0.59,2.8-0.9,4.09-0.9c2.94,0,4.31,1.36,4.31,4.2v4.92C270.11,181.87,270.29,182.19,270.78,182.39z
M266.79,181.12v-2.3h-0.56c-1.31,0-1.92,0.59-1.92,1.83c0,1.06,0.41,1.63,1.08,1.63C266,182.28,266.47,181.85,266.79,181.12z"/>
<path class="st6" d="M279.34,172.16l-0.56,3.27c-0.29-0.09-0.57-0.14-0.9-0.14c-1.26,0-1.74,1.08-2.08,2.69v6.32h-3.41v-11.99
h2.98l0.25,2.05c0.54-1.51,1.42-2.39,2.71-2.39C278.71,171.98,279.02,172.05,279.34,172.16z"/>
<path class="st6" d="M288.51,173.4l-1.4,1.9c-0.66-0.5-1.22-0.77-1.9-0.77c-1.24,0-1.96,0.88-1.96,3.86
c0,2.89,0.81,3.64,1.96,3.64c0.66,0,1.15-0.25,1.83-0.72l1.49,1.99c-0.95,0.86-2.1,1.4-3.55,1.4c-3.3,0-5.31-2.35-5.31-6.28
c0-4,2.03-6.48,5.26-6.48C286.38,171.93,287.54,172.43,288.51,173.4z"/>
<path class="st6" d="M298.82,175.57v8.74h-3.41v-8.36c0-1.08-0.29-1.42-0.79-1.42c-0.56,0-1.08,0.54-1.6,1.45v8.33h-3.41v-16.76
l3.41-0.34v6.41c0.81-1.13,1.72-1.69,2.91-1.69C297.74,171.93,298.82,173.27,298.82,175.57z"/>
<path class="st6" d="M315.4,178.28c0,3.88-1.58,6.41-4.09,6.41c-1.02,0-1.83-0.43-2.48-1.24v5.49l-3.41,0.36v-16.98h3.03
l0.16,1.33c0.81-1.22,1.83-1.72,3-1.72C314.15,171.93,315.4,174.24,315.4,178.28z M311.9,178.33c0-3.14-0.56-3.88-1.45-3.88
c-0.66,0-1.2,0.52-1.63,1.31v5.44c0.41,0.63,0.88,0.99,1.47,0.99C311.24,182.19,311.9,181.24,311.9,178.33z"/>
<path class="st6" d="M324.11,172.16l-0.56,3.27c-0.29-0.09-0.57-0.14-0.9-0.14c-1.26,0-1.74,1.08-2.08,2.69v6.32h-3.41v-11.99
h2.98l0.25,2.05c0.54-1.51,1.42-2.39,2.71-2.39C323.48,171.98,323.79,172.05,324.11,172.16z"/>
<path class="st6" d="M334.79,178.33c0,4.06-1.96,6.37-5.17,6.37c-3.18,0-5.17-2.12-5.17-6.39c0-4.11,1.96-6.37,5.17-6.37
C332.8,171.93,334.79,174.03,334.79,178.33z M327.97,178.3c0,2.91,0.52,3.88,1.65,3.88s1.67-1.02,1.67-3.86
c0-2.89-0.54-3.86-1.67-3.86C328.51,174.46,327.97,175.48,327.97,178.3z"/>
<path class="st6" d="M346.51,178.33c0,3.88-1.54,6.37-4.11,6.37c-1.13,0-2.06-0.56-2.69-1.51l-0.16,1.13h-3.03v-16.76l3.41-0.36
v6.28c0.63-0.95,1.63-1.54,2.82-1.54C345.2,171.93,346.51,174.12,346.51,178.33z M343.01,178.33c0-3.25-0.61-3.88-1.45-3.88
c-0.63,0-1.17,0.54-1.63,1.33v5.35c0.36,0.66,0.86,1.08,1.47,1.08C342.35,182.21,343.01,181.35,343.01,178.33z"/>
<path class="st6" d="M348.15,181.53v-13.98l3.41-0.36v14.18c0,0.41,0.16,0.61,0.52,0.61c0.18,0,0.34-0.02,0.45-0.07l0.63,2.35
c-0.45,0.23-1.17,0.43-1.94,0.43C349.28,184.69,348.15,183.47,348.15,181.53z"/>
<path class="st6" d="M363.42,179.32H357c0.18,2.28,0.97,2.87,2.17,2.87c0.93,0,1.65-0.32,2.53-0.99l1.38,1.85
c-0.99,0.95-2.37,1.65-4.16,1.65c-3.55,0-5.33-2.46-5.33-6.3c0-3.79,1.72-6.46,4.99-6.46c2.98,0,4.9,2.08,4.9,6.14
C363.49,178.46,363.44,178.98,363.42,179.32z M360.17,177.11c-0.02-1.92-0.41-2.91-1.54-2.91c-0.95,0-1.51,0.68-1.63,3.09h3.16
V177.11z"/>
<path class="st6" d="M379.47,175.57v8.74h-3.34v-8.38c0-1.08-0.27-1.42-0.75-1.42c-0.54,0-0.97,0.5-1.42,1.35v8.45h-3.32v-8.38
c0-1.08-0.29-1.42-0.75-1.42c-0.56,0-0.99,0.5-1.42,1.35v8.45h-3.37v-11.99h2.98l0.2,1.45c0.81-1.17,1.74-1.83,2.98-1.83
c1.15,0,2.03,0.7,2.44,1.92c0.81-1.24,1.76-1.92,3.05-1.92C378.39,171.93,379.47,173.27,379.47,175.57z"/>
<path class="st6" d="M389.29,173.4l-1.24,1.85c-0.81-0.54-1.58-0.88-2.39-0.88c-0.79,0-1.26,0.38-1.26,1.02
c0,0.68,0.36,0.99,2.14,1.69c2.01,0.75,3.12,1.72,3.12,3.7c0,2.44-2.01,3.91-4.72,3.91c-1.81,0-3.36-0.68-4.43-1.76l1.6-1.78
c0.79,0.63,1.72,1.13,2.67,1.13c0.88,0,1.4-0.45,1.4-1.2c0-0.84-0.36-1.2-2.12-1.85c-2.15-0.81-3.03-1.85-3.03-3.59
c0-2.1,1.58-3.7,4.34-3.7C386.94,171.93,388.3,172.5,389.29,173.4z"/>
<path class="st6" d="M432.42,173.4l-1.24,1.85c-0.81-0.54-1.58-0.88-2.39-0.88c-0.79,0-1.27,0.38-1.27,1.02
c0,0.68,0.36,0.99,2.15,1.69c2.01,0.75,3.12,1.72,3.12,3.7c0,2.44-2.01,3.91-4.72,3.91c-1.81,0-3.37-0.68-4.43-1.76l1.6-1.78
c0.79,0.63,1.72,1.13,2.67,1.13c0.88,0,1.4-0.45,1.4-1.2c0-0.84-0.36-1.2-2.12-1.85c-2.15-0.81-3.03-1.85-3.03-3.59
c0-2.1,1.58-3.7,4.34-3.7C430.07,171.93,431.42,172.5,432.42,173.4z"/>
<path class="st6" d="M444.07,178.33c0,4.06-1.96,6.37-5.17,6.37c-3.18,0-5.17-2.12-5.17-6.39c0-4.11,1.96-6.37,5.17-6.37
C442.08,171.93,444.07,174.03,444.07,178.33z M437.25,178.3c0,2.91,0.52,3.88,1.65,3.88s1.67-1.02,1.67-3.86
c0-2.89-0.54-3.86-1.67-3.86C437.79,174.46,437.25,175.48,437.25,178.3z"/>
<path class="st6" d="M449.66,171.05v1.26h2.44l-0.36,2.37h-2.08v9.62h-3.41v-9.62h-1.47v-2.37h1.47v-1.17
c0-2.35,1.38-3.95,4.11-3.95c1.17,0,2.15,0.32,2.96,0.75l-0.9,2.15c-0.56-0.25-1.06-0.38-1.54-0.38
C450.02,169.7,449.66,170.13,449.66,171.05z"/>
<path class="st6" d="M459.71,183.75c-0.81,0.66-1.99,0.95-2.94,0.95c-2.44,0-3.57-1.51-3.57-3.77v-6.23h-1.33v-2.37h1.33v-2.62
l3.41-0.38v3h2.37l-0.36,2.37h-2.01v6.19c0,0.75,0.32,1.11,0.93,1.11c0.36,0,0.65-0.11,1.04-0.32L459.71,183.75z"/>
<path class="st6" d="M472.17,184.31h-3.97l-1.26-8.92l-1.24,8.92h-3.95l-2.15-11.99h3.3l1.02,9.42l1.49-9.42h3.21l1.4,9.42
l1.08-9.42h3.18L472.17,184.31z"/>
<path class="st6" d="M484.68,182.39l-0.7,2.24c-1.29-0.11-2.15-0.54-2.6-1.65c-0.81,1.24-1.94,1.72-3.14,1.72
c-2.08,0-3.39-1.49-3.39-3.75c0-2.6,1.72-4.02,4.95-4.02h0.88v-0.61c0-1.47-0.43-1.92-1.63-1.92c-0.79,0-1.67,0.23-2.71,0.59
l-0.75-2.14c1.29-0.59,2.8-0.9,4.09-0.9c2.94,0,4.31,1.36,4.31,4.2v4.92C484,181.87,484.18,182.19,484.68,182.39z M480.68,181.12
v-2.3h-0.56c-1.31,0-1.92,0.59-1.92,1.83c0,1.06,0.41,1.63,1.08,1.63C479.89,182.28,480.37,181.85,480.68,181.12z"/>
<path class="st6" d="M493.24,172.16l-0.56,3.27c-0.29-0.09-0.57-0.14-0.9-0.14c-1.26,0-1.74,1.08-2.08,2.69v6.32h-3.41v-11.99
h2.98l0.25,2.05c0.54-1.51,1.42-2.39,2.71-2.39C492.61,171.98,492.92,172.05,493.24,172.16z"/>
<path class="st6" d="M503.4,179.32h-6.41c0.18,2.28,0.97,2.87,2.17,2.87c0.93,0,1.65-0.32,2.53-0.99l1.38,1.85
c-0.99,0.95-2.37,1.65-4.16,1.65c-3.55,0-5.33-2.46-5.33-6.3c0-3.79,1.72-6.46,4.99-6.46c2.98,0,4.9,2.08,4.9,6.14
C503.47,178.46,503.42,178.98,503.4,179.32z M500.15,177.11c-0.02-1.92-0.41-2.91-1.54-2.91c-0.95,0-1.51,0.68-1.63,3.09h3.16
V177.11z"/>
<path class="st6" d="M518.91,179.32h-6.41c0.18,2.28,0.97,2.87,2.17,2.87c0.93,0,1.65-0.32,2.53-0.99l1.38,1.85
c-0.99,0.95-2.37,1.65-4.16,1.65c-3.55,0-5.33-2.46-5.33-6.3c0-3.79,1.72-6.46,4.99-6.46c2.98,0,4.9,2.08,4.9,6.14
C518.98,178.46,518.93,178.98,518.91,179.32z M515.66,177.11c-0.02-1.92-0.41-2.91-1.54-2.91c-0.95,0-1.51,0.68-1.63,3.09h3.16
V177.11z"/>
<path class="st6" d="M529.81,175.57v8.74h-3.41v-8.36c0-1.08-0.29-1.42-0.79-1.42c-0.56,0-1.08,0.54-1.6,1.45v8.33h-3.41v-11.99
h2.98l0.25,1.42c0.81-1.17,1.76-1.81,3.09-1.81C528.73,171.93,529.81,173.27,529.81,175.57z"/>
<path class="st6" d="M541.65,172.97c-0.68,0.34-1.63,0.47-2.96,0.47c1.35,0.61,2.03,1.54,2.03,3.12c0,2.35-1.69,4-4.49,4
c-0.43,0-0.81-0.04-1.15-0.13c-0.25,0.16-0.38,0.45-0.38,0.77c0,0.45,0.2,0.79,1.2,0.79h1.33c2.67,0,4.22,1.4,4.22,3.39
c0,2.37-1.92,3.93-5.53,3.93c-4.06,0-5.08-1.49-5.08-3.84h3.05c0,1.08,0.36,1.6,2.05,1.6c1.63,0,2.1-0.61,2.1-1.45
c0-0.86-0.5-1.31-1.58-1.31h-1.13c-2.46,0-3.41-0.99-3.41-2.33c0-0.93,0.54-1.72,1.29-2.24c-1.31-0.79-1.9-1.81-1.9-3.43
c0-2.73,1.85-4.36,4.81-4.34c2.24,0.02,3.48-0.7,4.72-1.45L541.65,172.97z M534.64,176.27c0,1.47,0.54,2.1,1.42,2.1
c0.93,0,1.42-0.56,1.42-2.17c0-1.47-0.5-2.01-1.4-2.01C535.16,174.19,534.64,174.8,534.64,176.27z"/>
<path class="st6" d="M546.29,168.05c0,1.11-0.79,1.94-1.94,1.94c-1.17,0-1.96-0.84-1.96-1.94s0.79-1.94,1.96-1.94
C545.5,166.11,546.29,166.94,546.29,168.05z M546.05,184.31h-3.41v-11.99h3.41V184.31z"/>
<path class="st6" d="M557.47,175.57v8.74h-3.41v-8.36c0-1.08-0.29-1.42-0.79-1.42c-0.56,0-1.08,0.54-1.6,1.45v8.33h-3.41v-11.99
h2.98l0.25,1.42c0.81-1.17,1.76-1.81,3.09-1.81C556.39,171.93,557.47,173.27,557.47,175.57z"/>
<path class="st6" d="M568.94,179.32h-6.41c0.18,2.28,0.97,2.87,2.17,2.87c0.93,0,1.65-0.32,2.53-0.99l1.38,1.85
c-0.99,0.95-2.37,1.65-4.16,1.65c-3.55,0-5.33-2.46-5.33-6.3c0-3.79,1.72-6.46,4.99-6.46c2.98,0,4.9,2.08,4.9,6.14
C569.01,178.46,568.96,178.98,568.94,179.32z M565.69,177.11c-0.02-1.92-0.41-2.91-1.54-2.91c-0.95,0-1.51,0.68-1.63,3.09h3.16
V177.11z"/>
<path class="st6" d="M579.98,179.32h-6.41c0.18,2.28,0.97,2.87,2.17,2.87c0.93,0,1.65-0.32,2.53-0.99l1.38,1.85
c-0.99,0.95-2.37,1.65-4.16,1.65c-3.55,0-5.33-2.46-5.33-6.3c0-3.79,1.72-6.46,4.99-6.46c2.98,0,4.9,2.08,4.9,6.14
C580.05,178.46,580,178.98,579.98,179.32z M576.73,177.11c-0.02-1.92-0.41-2.91-1.54-2.91c-0.95,0-1.51,0.68-1.63,3.09h3.16
V177.11z"/>
<path class="st6" d="M588.63,172.16l-0.56,3.27c-0.29-0.09-0.57-0.14-0.9-0.14c-1.26,0-1.74,1.08-2.08,2.69v6.32h-3.41v-11.99
h2.98l0.25,2.05c0.54-1.51,1.42-2.39,2.71-2.39C588,171.98,588.31,172.05,588.63,172.16z"/>
<path class="st6" d="M593.26,168.05c0,1.11-0.79,1.94-1.94,1.94c-1.17,0-1.96-0.84-1.96-1.94s0.79-1.94,1.96-1.94
C592.47,166.11,593.26,166.94,593.26,168.05z M593.01,184.31h-3.41v-11.99h3.41V184.31z"/>
<path class="st6" d="M604.43,175.57v8.74h-3.41v-8.36c0-1.08-0.29-1.42-0.79-1.42c-0.56,0-1.08,0.54-1.6,1.45v8.33h-3.41v-11.99
h2.98l0.25,1.42c0.81-1.17,1.76-1.81,3.09-1.81C603.35,171.93,604.43,173.27,604.43,175.57z"/>
<path class="st6" d="M616.26,172.97c-0.68,0.34-1.63,0.47-2.96,0.47c1.36,0.61,2.03,1.54,2.03,3.12c0,2.35-1.69,4-4.49,4
c-0.43,0-0.81-0.04-1.15-0.13c-0.25,0.16-0.38,0.45-0.38,0.77c0,0.45,0.2,0.79,1.2,0.79h1.33c2.67,0,4.22,1.4,4.22,3.39
c0,2.37-1.92,3.93-5.53,3.93c-4.06,0-5.08-1.49-5.08-3.84h3.05c0,1.08,0.36,1.6,2.05,1.6c1.63,0,2.1-0.61,2.1-1.45
c0-0.86-0.5-1.31-1.58-1.31h-1.13c-2.46,0-3.41-0.99-3.41-2.33c0-0.93,0.54-1.72,1.29-2.24c-1.31-0.79-1.9-1.81-1.9-3.43
c0-2.73,1.85-4.36,4.81-4.34c2.24,0.02,3.48-0.7,4.72-1.45L616.26,172.97z M609.26,176.27c0,1.47,0.54,2.1,1.42,2.1
c0.93,0,1.42-0.56,1.42-2.17c0-1.47-0.5-2.01-1.4-2.01C609.78,174.19,609.26,174.8,609.26,176.27z"/>
<path class="st8" d="M8.92,24.85c-0.9,0.63-2.17,0.95-3.25,0.95c-2.64-0.02-3.93-1.51-3.93-4.34V15.9H0.05v-2.48h1.69v-2.6
l3.57-0.41v3h2.75L7.68,15.9H5.31v5.51c0,1.15,0.38,1.56,1.13,1.56c0.41,0,0.81-0.11,1.29-0.41L8.92,24.85z"/>
<path class="st8" d="M20.46,16.65v8.76h-3.57v-8.15c0-1.26-0.45-1.6-1.13-1.6c-0.79,0-1.45,0.56-2.08,1.54v8.22h-3.57V8.65
l3.57-0.36v6.39c0.97-1.08,2.06-1.65,3.46-1.65C19.22,13.03,20.46,14.37,20.46,16.65z"/>
<path class="st8" d="M33.53,20.46h-7.41c0.23,2.15,1.24,2.73,2.71,2.73c0.97,0,1.83-0.34,2.87-1.06l1.47,1.99
c-1.2,0.95-2.73,1.67-4.67,1.67c-4,0-6.03-2.57-6.03-6.32c0-3.59,1.96-6.44,5.6-6.44c3.43,0,5.53,2.26,5.53,6.14
C33.6,19.56,33.58,20.1,33.53,20.46z M30.1,18.16c-0.02-1.63-0.52-2.76-1.94-2.76c-1.2,0-1.87,0.75-2.06,2.91h4V18.16z"/>
<path class="st8" d="M46.72,19.43c0,3.84-2.21,6.37-5.87,6.37c-3.64,0-5.87-2.35-5.87-6.39c0-3.84,2.21-6.37,5.87-6.37
S46.72,15.38,46.72,19.43z M38.68,19.4c0,2.67,0.72,3.77,2.17,3.77s2.17-1.15,2.17-3.75c0-2.67-0.72-3.77-2.17-3.77
S38.68,16.81,38.68,19.4z"/>
<path class="st8" d="M56.54,13.24l-0.56,3.46c-0.38-0.09-0.68-0.16-1.08-0.16c-1.47,0-2.1,1.08-2.48,2.89v5.98h-3.57V13.42h3.12
l0.29,2.3c0.54-1.65,1.72-2.64,3.09-2.64C55.79,13.08,56.15,13.12,56.54,13.24z"/>
<path class="st8" d="M68.05,20.46h-7.41c0.23,2.15,1.24,2.73,2.71,2.73c0.97,0,1.83-0.34,2.87-1.06l1.47,1.99
c-1.2,0.95-2.73,1.67-4.67,1.67c-4,0-6.03-2.57-6.03-6.32c0-3.59,1.96-6.44,5.6-6.44c3.43,0,5.53,2.26,5.53,6.14
C68.12,19.56,68.1,20.1,68.05,20.46z M64.62,18.16c-0.02-1.63-0.52-2.76-1.94-2.76c-1.2,0-1.87,0.75-2.06,2.91h4V18.16z"/>
<path class="st8" d="M77.69,24.85c-0.9,0.63-2.17,0.95-3.25,0.95c-2.64-0.02-3.93-1.51-3.93-4.34V15.9h-1.69v-2.48h1.69v-2.6
l3.57-0.41v3h2.75l-0.38,2.48h-2.37v5.51c0,1.15,0.38,1.56,1.13,1.56c0.41,0,0.81-0.11,1.29-0.41L77.69,24.85z"/>
<path class="st8" d="M82.77,9.13c0,1.15-0.88,2.03-2.12,2.03s-2.1-0.88-2.1-2.03s0.86-2.03,2.1-2.03S82.77,7.98,82.77,9.13z
M82.45,25.41h-3.57V13.42h3.57V25.41z"/>
<path class="st8" d="M94.56,14.5l-1.54,2.12c-0.77-0.59-1.47-0.86-2.28-0.86c-1.54,0-2.42,1.04-2.42,3.73
c0,2.66,0.95,3.48,2.37,3.48c0.86,0,1.45-0.27,2.3-0.81l1.56,2.21c-1.11,0.88-2.39,1.42-4.04,1.42c-3.68,0-5.94-2.48-5.94-6.28
c0-3.82,2.28-6.48,5.87-6.48C92.12,13.03,93.41,13.53,94.56,14.5z"/>
<path class="st8" d="M106.41,23.4l-0.75,2.33c-1.4-0.11-2.33-0.54-2.89-1.72c-0.86,1.31-2.19,1.78-3.61,1.78
c-2.39,0-3.91-1.56-3.91-3.75c0-2.62,1.99-4.04,5.62-4.04h1.22v-0.52c0-1.42-0.56-1.85-2.03-1.85c-0.77,0-1.94,0.23-3.14,0.63
l-0.81-2.35c1.51-0.56,3.16-0.88,4.52-0.88c3.48,0,4.97,1.47,4.97,4.25v4.65C105.6,22.86,105.85,23.2,106.41,23.4z M102.1,22.11
v-2.15h-0.88c-1.63,0-2.42,0.56-2.42,1.76c0,0.95,0.52,1.51,1.4,1.51C101.01,23.24,101.67,22.81,102.1,22.11z"/>
<path class="st8" d="M108.33,22.36V8.65l3.57-0.38v13.96c0,0.5,0.18,0.75,0.61,0.75c0.25,0,0.43-0.04,0.59-0.11l0.7,2.53
c-0.54,0.23-1.31,0.41-2.17,0.41C109.55,25.79,108.33,24.55,108.33,22.36z"/>
<path class="st8" d="M26,46.47c0,3.7-1.81,6.41-4.77,6.41c-1.17,0-2.17-0.41-2.91-1.26v5.51l-3.57,0.38V40.51h3.14l0.18,1.33
c0.99-1.24,2.28-1.72,3.39-1.72C24.62,40.13,26,42.59,26,46.47z M22.3,46.52c0-2.98-0.72-3.77-1.96-3.77
c-0.77,0-1.49,0.52-2.01,1.4v5.06c0.5,0.72,1.08,1.06,1.83,1.06C21.48,50.27,22.3,49.21,22.3,46.52z"/>
<path class="st8" d="M35.93,40.33l-0.56,3.46c-0.38-0.09-0.68-0.16-1.08-0.16c-1.47,0-2.1,1.08-2.48,2.89v5.98h-3.57V40.51h3.12
l0.29,2.3c0.54-1.65,1.72-2.64,3.09-2.64C35.19,40.17,35.55,40.22,35.93,40.33z"/>
<path class="st8" d="M48.13,46.52c0,3.84-2.21,6.37-5.87,6.37c-3.64,0-5.87-2.35-5.87-6.39c0-3.84,2.21-6.37,5.87-6.37
S48.13,42.48,48.13,46.52z M40.09,46.5c0,2.66,0.72,3.77,2.17,3.77s2.17-1.15,2.17-3.75c0-2.67-0.72-3.77-2.17-3.77
S40.09,43.9,40.09,46.5z"/>
<path class="st8" d="M61.49,46.52c0,3.7-1.78,6.37-4.77,6.37c-1.33,0-2.42-0.56-3.14-1.54l-0.18,1.15h-3.16V35.75l3.57-0.38v6.37
c0.7-0.97,1.92-1.6,3.16-1.6C59.94,40.13,61.49,42.5,61.49,46.52z M57.79,46.52c0-3.05-0.81-3.77-1.92-3.77
c-0.86,0-1.54,0.52-2.06,1.4v4.97c0.45,0.75,1.11,1.17,1.9,1.17C56.93,50.29,57.79,49.32,57.79,46.52z"/>
<path class="st8" d="M63.61,49.45V35.75l3.57-0.38v13.96c0,0.5,0.18,0.75,0.61,0.75c0.25,0,0.43-0.05,0.59-0.11l0.7,2.53
c-0.54,0.23-1.31,0.41-2.17,0.41C64.83,52.89,63.61,51.64,63.61,49.45z"/>
<path class="st8" d="M80.59,47.56h-7.41c0.23,2.15,1.24,2.73,2.71,2.73c0.97,0,1.83-0.34,2.87-1.06l1.47,1.99
c-1.2,0.95-2.73,1.67-4.67,1.67c-4,0-6.03-2.57-6.03-6.32c0-3.59,1.96-6.44,5.6-6.44c3.43,0,5.53,2.26,5.53,6.14
C80.66,46.65,80.64,47.2,80.59,47.56z M77.16,45.25c-0.02-1.63-0.52-2.76-1.94-2.76c-1.2,0-1.87,0.75-2.06,2.91h4V45.25z"/>
<path class="st8" d="M99.11,43.74v8.76h-3.57v-8.15c0-1.26-0.47-1.6-1.02-1.6c-0.77,0-1.31,0.56-1.83,1.56v8.2h-3.57v-8.15
c0-1.26-0.47-1.6-1.02-1.6c-0.75,0-1.31,0.56-1.83,1.56v8.2h-3.57V40.51h3.12l0.25,1.4c0.93-1.17,2.01-1.78,3.48-1.78
c1.33,0,2.35,0.68,2.82,1.9c0.95-1.24,2.05-1.9,3.59-1.9C97.82,40.13,99.11,41.46,99.11,43.74z"/>
<path class="st8" d="M71.69,164.76c0,3.7-1.81,6.41-4.77,6.41c-1.17,0-2.17-0.41-2.91-1.26v5.51l-3.57,0.38v-17h3.14l0.18,1.33
c0.99-1.24,2.28-1.72,3.39-1.72C70.32,158.42,71.69,160.88,71.69,164.76z M67.99,164.81c0-2.98-0.72-3.77-1.96-3.77
c-0.77,0-1.49,0.52-2.01,1.4v5.06c0.5,0.72,1.08,1.06,1.83,1.06C67.18,168.56,67.99,167.5,67.99,164.81z"/>
<path class="st8" d="M81.63,158.62l-0.56,3.46c-0.38-0.09-0.68-0.16-1.08-0.16c-1.47,0-2.1,1.08-2.48,2.89v5.98h-3.57V158.8h3.12
l0.29,2.3c0.54-1.65,1.72-2.64,3.09-2.64C80.88,158.46,81.24,158.51,81.63,158.62z"/>
<path class="st8" d="M92.87,168.78l-0.75,2.33c-1.4-0.11-2.33-0.54-2.89-1.72c-0.86,1.31-2.19,1.78-3.61,1.78
c-2.39,0-3.91-1.56-3.91-3.75c0-2.62,1.99-4.04,5.62-4.04h1.22v-0.52c0-1.42-0.56-1.85-2.03-1.85c-0.77,0-1.94,0.23-3.14,0.63
l-0.81-2.35c1.51-0.56,3.16-0.88,4.52-0.88c3.48,0,4.97,1.47,4.97,4.25v4.65C92.06,168.24,92.31,168.58,92.87,168.78z
M88.56,167.5v-2.15h-0.88c-1.63,0-2.42,0.56-2.42,1.76c0,0.95,0.52,1.51,1.4,1.51C87.47,168.62,88.13,168.2,88.56,167.5z"/>
<path class="st8" d="M104.21,159.88l-1.54,2.12c-0.77-0.59-1.47-0.86-2.28-0.86c-1.54,0-2.42,1.04-2.42,3.73
c0,2.67,0.95,3.48,2.37,3.48c0.86,0,1.45-0.27,2.3-0.81l1.56,2.21c-1.11,0.88-2.39,1.42-4.04,1.42c-3.68,0-5.94-2.48-5.94-6.28
c0-3.82,2.28-6.48,5.87-6.48C101.77,158.42,103.05,158.91,104.21,159.88z"/>
<path class="st8" d="M113.24,170.23c-0.9,0.63-2.17,0.95-3.25,0.95c-2.64-0.02-3.93-1.51-3.93-4.34v-5.56h-1.69v-2.48h1.69v-2.6
l3.57-0.41v3h2.75l-0.38,2.48h-2.37v5.51c0,1.15,0.38,1.56,1.13,1.56c0.41,0,0.81-0.11,1.29-0.41L113.24,170.23z"/>
<path class="st8" d="M118.32,154.51c0,1.15-0.88,2.03-2.12,2.03s-2.1-0.88-2.1-2.03c0-1.15,0.86-2.03,2.1-2.03
S118.32,153.36,118.32,154.51z M118,170.79h-3.57V158.8H118V170.79z"/>
<path class="st8" d="M130.1,159.88l-1.54,2.12c-0.77-0.59-1.47-0.86-2.28-0.86c-1.54,0-2.42,1.04-2.42,3.73
c0,2.67,0.95,3.48,2.37,3.48c0.86,0,1.45-0.27,2.3-0.81l1.56,2.21c-1.11,0.88-2.39,1.42-4.04,1.42c-3.68,0-5.94-2.48-5.94-6.28
c0-3.82,2.28-6.48,5.87-6.48C127.66,158.42,128.95,158.91,130.1,159.88z"/>
<path class="st8" d="M141.96,168.78l-0.75,2.33c-1.4-0.11-2.33-0.54-2.89-1.72c-0.86,1.31-2.19,1.78-3.61,1.78
c-2.39,0-3.91-1.56-3.91-3.75c0-2.62,1.99-4.04,5.62-4.04h1.22v-0.52c0-1.42-0.56-1.85-2.03-1.85c-0.77,0-1.94,0.23-3.14,0.63
l-0.81-2.35c1.51-0.56,3.16-0.88,4.52-0.88c3.48,0,4.97,1.47,4.97,4.25v4.65C141.14,168.24,141.39,168.58,141.96,168.78z
M137.64,167.5v-2.15h-0.88c-1.63,0-2.42,0.56-2.42,1.76c0,0.95,0.52,1.51,1.4,1.51C136.56,168.62,137.21,168.2,137.64,167.5z"/>
<path class="st8" d="M143.87,167.74v-13.71l3.57-0.38v13.96c0,0.5,0.18,0.75,0.61,0.75c0.25,0,0.43-0.05,0.59-0.11l0.7,2.53
c-0.54,0.23-1.31,0.41-2.17,0.41C145.09,171.18,143.87,169.93,143.87,167.74z"/>
<path class="st8" d="M73.3,191.86c0,3.7-1.81,6.41-4.77,6.41c-1.17,0-2.17-0.41-2.91-1.26v5.51l-3.57,0.38v-17h3.14l0.18,1.33
c0.99-1.24,2.28-1.72,3.39-1.72C71.92,185.51,73.3,187.97,73.3,191.86z M69.59,191.9c0-2.98-0.72-3.77-1.96-3.77
c-0.77,0-1.49,0.52-2.01,1.4v5.06c0.5,0.72,1.08,1.06,1.83,1.06C68.78,195.65,69.59,194.59,69.59,191.9z"/>
<path class="st8" d="M83.23,185.71l-0.56,3.46c-0.38-0.09-0.68-0.16-1.08-0.16c-1.47,0-2.1,1.08-2.48,2.89v5.98h-3.57v-11.99h3.12
l0.29,2.3c0.54-1.65,1.72-2.64,3.09-2.64C82.49,185.56,82.85,185.6,83.23,185.71z"/>
<path class="st8" d="M95.42,191.9c0,3.84-2.21,6.37-5.87,6.37c-3.64,0-5.87-2.35-5.87-6.39c0-3.84,2.21-6.37,5.87-6.37
S95.42,187.86,95.42,191.9z M87.38,191.88c0,2.66,0.72,3.77,2.17,3.77s2.17-1.15,2.17-3.75c0-2.67-0.72-3.77-2.17-3.77
S87.38,189.28,87.38,191.88z"/>
<path class="st8" d="M108.79,191.9c0,3.7-1.78,6.37-4.77,6.37c-1.33,0-2.42-0.56-3.14-1.54l-0.18,1.15h-3.16v-16.76l3.57-0.38
v6.37c0.7-0.97,1.92-1.6,3.16-1.6C107.23,185.51,108.79,187.88,108.79,191.9z M105.09,191.9c0-3.05-0.81-3.77-1.92-3.77
c-0.86,0-1.54,0.52-2.06,1.4v4.97c0.45,0.75,1.11,1.17,1.9,1.17C104.23,195.67,105.09,194.7,105.09,191.9z"/>
<path class="st8" d="M110.91,194.84v-13.71l3.57-0.38v13.96c0,0.5,0.18,0.75,0.61,0.75c0.25,0,0.43-0.05,0.59-0.11l0.7,2.53
c-0.54,0.23-1.31,0.41-2.17,0.41C112.13,198.27,110.91,197.03,110.91,194.84z"/>
<path class="st8" d="M127.89,192.94h-7.41c0.23,2.15,1.24,2.73,2.71,2.73c0.97,0,1.83-0.34,2.87-1.06l1.47,1.99
c-1.2,0.95-2.73,1.67-4.67,1.67c-4,0-6.03-2.57-6.03-6.32c0-3.59,1.96-6.44,5.6-6.44c3.43,0,5.53,2.26,5.53,6.14
C127.96,192.04,127.93,192.58,127.89,192.94z M124.46,190.64c-0.02-1.63-0.52-2.75-1.94-2.75c-1.2,0-1.87,0.75-2.06,2.91h4V190.64
z"/>
<path class="st8" d="M146.4,189.12v8.76h-3.57v-8.15c0-1.26-0.47-1.6-1.02-1.6c-0.77,0-1.31,0.56-1.83,1.56v8.2h-3.57v-8.15
c0-1.26-0.47-1.6-1.02-1.6c-0.75,0-1.31,0.56-1.83,1.56v8.2h-3.57v-11.99h3.12l0.25,1.4c0.93-1.17,2.01-1.78,3.48-1.78
c1.33,0,2.35,0.68,2.82,1.9c0.95-1.24,2.05-1.9,3.59-1.9C145.12,185.51,146.4,186.84,146.4,189.12z"/>
</svg>
