<?xml version="1.0" encoding="utf-8"?>
<svg version="1.1" xmlns="http://www.w3.org/2000/svg" viewBox="0 0 390 360">
<style type="text/css">
	.st0{opacity:0.5;fill:#3A2D72}
	.st1{opacity:0.3;fill:#3A2D72}
	.st2{opacity:0.13;fill:#3A2D72}
	.st3{fill:none;stroke:#1D1D1B;stroke-width:1.125;stroke-miterlimit:10;}
	.st4{fill:#1D1D1B;}
	.st5{fill:#3A2D72;}
	.st6{fill:#FFFFFF;}
</style>
<polygon class="st0" points="231.7,67.8 194.4,3.8 157.1,67.8 "/>
<polygon class="st1" points="285.2,159.5 247.9,95.6 140.8,95.6 103.5,159.5 "/>
<polygon class="st2" points="301.4,187.3 87.3,187.3 50,251.2 338.8,251.2 "/>
<line class="st3" x1="101.1" y1="293.1" x2="101.1" y2="254.4"/>
<polygon class="st4" points="104.7,261 103.7,261.4 101.1,254.5 98.6,261.4 97.6,261 101.1,251.2 "/>
<line class="st3" x1="147.8" y1="282.5" x2="147.8" y2="254.4"/>
<polygon class="st4" points="151.3,261 150.3,261.4 147.8,254.5 145.2,261.4 144.2,261 147.8,251.2 "/>
<line class="st3" x1="194.4" y1="279.7" x2="194.4" y2="254.4"/>
<polygon class="st4" points="197.9,261 196.9,261.4 194.4,254.5 191.9,261.4 190.8,261 194.4,251.2 "/>
<line class="st3" x1="241" y1="282.5" x2="241" y2="254.4"/>
<polygon class="st4" points="244.6,261 243.5,261.4 241,254.5 238.5,261.4 237.4,261 241,251.2 "/>
<line class="st3" x1="287.6" y1="293.1" x2="287.6" y2="254.4"/>
<polygon class="st4" points="291.2,261 290.1,261.4 287.6,254.5 285.1,261.4 284,261 287.6,251.2 "/>
<ellipse class="st5" cx="194.4" cy="312" rx="115.1" ry="32.2"/>
<path class="st4" d="M186.8,49.5h-2.9l-0.5,2.1h-2.9l3.2-10.2h3.4l3.2,10.2h-3L186.8,49.5z M186.4,47.5l-1-4.2l-1,4.2H186.4z"/>
<path class="st4" d="M199.5,44.8c0,2.4-1.8,3.5-4.3,3.5h-1.1v3.3h-2.8V41.4h3.7C197.7,41.4,199.5,42.5,199.5,44.8z M196.6,44.8
	c0-0.9-0.6-1.4-1.7-1.4h-0.8v3h0.9C196,46.3,196.6,45.9,196.6,44.8z"/>
<path class="st4" d="M203.9,51.6H201V41.4h2.8V51.6z"/>
<path class="st4" d="M164.7,83.3c0,1.7,0.9,2.4,2.1,2.4c0.9,0,1.7-0.3,2.5-0.9l0.7,1.1c-1,0.7-2.1,1.2-3.4,1.2
	c-2.3,0-3.6-1.5-3.6-3.8c0-2.6,1.3-6.1,4.9-6.1c2,0,3,1.2,3,2.4C170.8,82.2,168,82.9,164.7,83.3z M169.1,79.6c0-0.4-0.3-1.2-1.3-1.2
	c-2,0-2.8,1.9-3,3.6C167.5,81.7,169.1,81.2,169.1,79.6z"/>
<path class="st4" d="M176.6,81.9l2.5,4.9h-1.8l-1.8-4l-2.9,4h-1.9l4-5.1l-2.2-4.4h1.8l1.5,3.5l2.5-3.5h1.9L176.6,81.9z"/>
<path class="st4" d="M189.4,80.9c0,2.7-1.3,6.2-5,6.2c-0.6,0-1.2-0.1-1.8-0.3l-0.5,3.8l-1.6,0.2l1.9-13.4h1.4l0,1.2
	c1-1.1,1.9-1.4,2.9-1.4C188.3,77.1,189.4,78.5,189.4,80.9z M183.5,79.8l-0.8,5.6c0.6,0.2,1,0.3,1.7,0.3c2.4,0,3.2-2.9,3.2-5
	c0-1.7-0.7-2.3-1.7-2.3S184.2,79.1,183.5,79.8z"/>
<path class="st4" d="M199.8,81.1c0,2.3-1.2,6-4.9,6c-2.4,0-3.6-1.5-3.6-3.9c0-2.3,1.2-6,4.9-6C198.6,77.1,199.8,78.7,199.8,81.1z
	 M193,83.3c0,1.7,0.7,2.4,2,2.4c2.5,0,3.1-3,3.1-4.8c0-1.7-0.7-2.4-1.9-2.4C193.7,78.5,193,81.5,193,83.3z"/>
<path class="st4" d="M208.6,78.3l-0.8,1c-0.7-0.6-1.5-0.8-2.3-0.8c-1.1,0-1.9,0.5-1.9,1.3c0,0.8,0.6,1,1.9,1.4
	c1.8,0.6,2.7,1.3,2.7,2.8c0,2.1-2,3-3.9,3c-1.7,0-2.8-0.7-3.5-1.4l0.9-1c0.7,0.6,1.6,1,2.6,1c1.7,0,2.1-0.9,2.1-1.6
	c0-0.9-0.5-1.3-2-1.8c-1.8-0.6-2.5-1.3-2.5-2.6c0-1.3,1.1-2.7,3.6-2.7C206.8,77.1,207.8,77.6,208.6,78.3z"/>
<path class="st4" d="M211.7,83.3c0,1.7,0.9,2.4,2.1,2.4c0.9,0,1.7-0.3,2.5-0.9l0.7,1.1c-1,0.7-2.1,1.2-3.4,1.2
	c-2.3,0-3.6-1.5-3.6-3.8c0-2.6,1.3-6.1,4.9-6.1c2,0,3,1.2,3,2.4C217.9,82.2,215,82.9,211.7,83.3z M216.2,79.6c0-0.4-0.3-1.2-1.3-1.2
	c-2,0-2.8,1.9-3,3.6C214.5,81.7,216.2,81.2,216.2,79.6z"/>
<path class="st4" d="M226.3,78.3l-0.8,1c-0.7-0.6-1.5-0.8-2.3-0.8c-1.1,0-1.9,0.5-1.9,1.3c0,0.8,0.6,1,1.9,1.4
	c1.8,0.6,2.7,1.3,2.7,2.8c0,2.1-2,3-3.9,3c-1.7,0-2.8-0.7-3.5-1.4l0.9-1c0.7,0.6,1.6,1,2.6,1c1.7,0,2.1-0.9,2.1-1.6
	c0-0.9-0.5-1.3-2-1.8c-1.8-0.6-2.5-1.3-2.5-2.6c0-1.3,1.1-2.7,3.6-2.7C224.5,77.1,225.5,77.6,226.3,78.3z"/>
<path class="st4" d="M132.2,178.3h-1.6l1.3-9.5h1.6L132.2,178.3z M134.3,165.4c-0.1,0.6-0.6,1-1.2,1c-0.7,0-1.1-0.5-1-1.2
	c0.1-0.6,0.6-1,1.2-1C134,164.2,134.4,164.8,134.3,165.4z"/>
<path class="st4" d="M148.5,171.5l-0.9,6.8h-1.6l0.9-6.6c0.2-1.4-0.3-1.7-1-1.7c-1,0-1.9,1.3-2.7,2.6l-0.8,5.7h-1.6l0.9-6.6
	c0.2-1.4-0.3-1.7-1-1.7c-1,0-1.9,1.3-2.7,2.6l-0.8,5.7h-1.6l1.3-9.5h1.4l-0.1,1.8c0.9-1.2,1.8-2,3.1-2c1,0,1.9,0.7,2.1,1.9
	c0.9-1.2,1.9-1.9,3.1-1.9C147.8,168.6,148.7,169.7,148.5,171.5z"/>
<path class="st4" d="M159.3,172.3c0,2.7-1.3,6.2-5,6.2c-0.6,0-1.2-0.1-1.8-0.3l-0.5,3.8l-1.6,0.2l1.9-13.4h1.4l0,1.2
	c1-1.1,1.9-1.4,2.9-1.4C158.2,168.6,159.3,169.9,159.3,172.3z M153.4,171.2l-0.8,5.6c0.6,0.2,1,0.3,1.7,0.3c2.4,0,3.2-2.9,3.2-5
	c0-1.7-0.7-2.3-1.7-2.3C154.9,169.9,154.1,170.5,153.4,171.2z"/>
<path class="st4" d="M163.1,176.4c-0.1,0.5,0,0.7,0.4,0.7c0.2,0,0.4-0.1,0.6-0.1l0.3,1.2c-0.5,0.2-0.9,0.3-1.3,0.3
	c-1.3,0-1.9-0.8-1.7-2.3l1.6-11.2l1.7-0.2L163.1,176.4z"/>
<path class="st4" d="M168,174.7c0,1.7,0.9,2.4,2.1,2.4c0.9,0,1.7-0.3,2.5-0.9l0.7,1.1c-1,0.7-2.1,1.1-3.4,1.1
	c-2.3,0-3.6-1.5-3.6-3.9c0-2.6,1.3-6.1,4.9-6.1c2,0,3,1.1,3,2.4C174.1,173.6,171.3,174.4,168,174.7z M172.4,171
	c0-0.4-0.3-1.1-1.3-1.1c-2,0-2.8,1.9-3,3.6C170.8,173.2,172.4,172.7,172.4,171z"/>
<path class="st4" d="M188.6,171.5l-0.9,6.8h-1.6l0.9-6.6c0.2-1.4-0.3-1.7-1-1.7c-1,0-1.9,1.3-2.7,2.6l-0.8,5.7h-1.6l0.9-6.6
	c0.2-1.4-0.3-1.7-1-1.7c-1,0-1.9,1.3-2.7,2.6l-0.8,5.7h-1.6l1.3-9.5h1.4l-0.1,1.8c0.9-1.2,1.8-2,3.1-2c1,0,1.9,0.7,2.1,1.9
	c0.9-1.2,1.9-1.9,3.1-1.9C188,168.6,188.9,169.7,188.6,171.5z"/>
<path class="st4" d="M192.6,174.7c0,1.7,0.9,2.4,2.1,2.4c0.9,0,1.7-0.3,2.5-0.9l0.7,1.1c-1,0.7-2.1,1.1-3.4,1.1
	c-2.3,0-3.6-1.5-3.6-3.9c0-2.6,1.3-6.1,4.9-6.1c2,0,3,1.1,3,2.4C198.8,173.6,195.9,174.4,192.6,174.7z M197.1,171
	c0-0.4-0.3-1.1-1.3-1.1c-2,0-2.8,1.9-3,3.6C195.4,173.2,197.1,172.7,197.1,171z"/>
<path class="st4" d="M208.5,171.6l-0.9,6.7h-1.6l0.9-6.6c0.2-1.3-0.3-1.7-1-1.7c-1.2,0-2.3,1.3-3,2.6l-0.8,5.7h-1.6l1.3-9.5h1.4
	l-0.1,1.9c0.9-1.2,1.9-2.1,3.3-2.1C207.9,168.6,208.7,169.7,208.5,171.6z"/>
<path class="st4" d="M212.9,175.8c-0.1,0.9,0.1,1.3,0.9,1.3c0.4,0,0.8-0.1,1.3-0.4l0.5,1.2c-0.7,0.4-1.4,0.6-2.1,0.6
	c-1.6,0-2.5-1-2.2-2.8l0.8-5.7h-1.6l0.2-1.3h1.7l0.6-2.2l1.3-0.1l-0.3,2.3h2.2l-0.4,1.3h-2.1L212.9,175.8z"/>
<path class="st4" d="M218.7,174.7c0,1.7,0.9,2.4,2.1,2.4c0.9,0,1.7-0.3,2.5-0.9l0.7,1.1c-1,0.7-2.1,1.1-3.4,1.1
	c-2.3,0-3.6-1.5-3.6-3.9c0-2.6,1.3-6.1,4.9-6.1c2,0,3,1.1,3,2.4C224.8,173.6,222,174.4,218.7,174.7z M223.1,171
	c0-0.4-0.3-1.1-1.3-1.1c-2,0-2.8,1.9-3,3.6C221.5,173.2,223.1,172.7,223.1,171z"/>
<path class="st4" d="M235.6,165l-1.9,13.3h-1.4l0-1.6c-0.7,1.1-1.6,1.8-2.9,1.8c-2,0-3-1.5-3-3.8c0-2.4,1.2-6.2,4.4-6.2
	c1.1,0,1.9,0.5,2.4,1.2l0.7-4.9L235.6,165z M228.1,174.9c0,1.6,0.6,2.3,1.6,2.3c1.2,0,1.9-0.9,2.8-2.2l0.6-3.9
	c-0.5-0.7-1.1-1.1-2-1.1C228.8,169.9,228.1,173,228.1,174.9z"/>
<path class="st4" d="M250.1,169.4l-1,6.7c0,0.1,0,0.3,0,0.4c0,0.5,0.2,0.7,0.6,0.9l-0.5,1.1c-0.9-0.1-1.6-0.6-1.7-1.6
	c-0.7,0.9-1.7,1.6-2.8,1.6c-2,0-3-1.5-3-3.6c0-2.6,1.4-6.3,5.1-6.3C247.8,168.6,248.8,168.8,250.1,169.4z M243.4,174.9
	c0,1.6,0.6,2.3,1.7,2.3c1,0,1.8-0.8,2.5-1.8l0.8-5.2c-0.5-0.2-0.9-0.3-1.6-0.3C244.3,169.9,243.4,172.8,243.4,174.9z"/>
<path class="st4" d="M258.8,169.7l-0.8,1c-0.7-0.6-1.5-0.9-2.3-0.9c-1.1,0-1.9,0.5-1.9,1.3c0,0.8,0.6,1,1.9,1.4
	c1.8,0.6,2.7,1.4,2.7,2.9c0,2.1-2,3-3.9,3c-1.7,0-2.8-0.6-3.5-1.4l0.9-1c0.7,0.6,1.6,1,2.6,1c1.7,0,2.1-0.9,2.1-1.6
	c0-0.9-0.5-1.3-2-1.8c-1.8-0.6-2.5-1.3-2.5-2.6c0-1.3,1.1-2.7,3.6-2.7C257,168.6,258,169,258.8,169.7z"/>
<path class="st4" d="M138.9,123.3v0.7h2.2l-0.3,2h-1.9v7.6h-2.8V126h-1.4v-2h1.4v-0.8c0-1.8,1.2-3.3,3.6-3.3c1,0,1.9,0.2,2.6,0.6
	l-0.8,1.8c-0.5-0.3-1.1-0.4-1.5-0.4C139.2,122,138.9,122.4,138.9,123.3z"/>
<path class="st4" d="M150.2,133.6h-2.5l-0.1-1.2c-0.7,1-1.6,1.5-2.9,1.5c-1.8,0-2.7-1.1-2.7-3V124h2.8v6.5c0,1,0.3,1.3,0.9,1.3
	s1.1-0.4,1.6-1.1V124h2.8L150.2,133.6L150.2,133.6z"/>
<path class="st4" d="M160.6,126.6v7h-2.8v-6.5c0-1-0.3-1.3-0.9-1.3c-0.6,0-1.1,0.4-1.7,1.2v6.5h-2.8V124h2.5l0.2,1.1
	c0.8-0.9,1.7-1.4,2.9-1.4C159.6,123.7,160.6,124.8,160.6,126.6z"/>
<path class="st4" d="M170.2,124.9l-1.2,1.7c-0.6-0.5-1.2-0.7-1.8-0.7c-1.2,0-1.9,0.8-1.9,3c0,2.1,0.8,2.8,1.9,2.8
	c0.7,0,1.2-0.2,1.8-0.6l1.2,1.8c-0.9,0.7-1.9,1.1-3.2,1.1c-2.9,0-4.7-2-4.7-5c0-3,1.8-5.2,4.7-5.2
	C168.2,123.7,169.3,124.1,170.2,124.9z"/>
<path class="st4" d="M177.4,133.1c-0.7,0.5-1.7,0.8-2.6,0.8c-2.1,0-3.1-1.2-3.1-3.5V126h-1.4v-2h1.4V122l2.8-0.3v2.4h2.2l-0.3,2
	h-1.9v4.4c0,0.9,0.3,1.2,0.9,1.2c0.3,0,0.6-0.1,1-0.3L177.4,133.1z"/>
<path class="st4" d="M181.4,120.6c0,0.9-0.7,1.6-1.7,1.6s-1.7-0.7-1.7-1.6s0.7-1.6,1.7-1.6S181.4,119.7,181.4,120.6z M181.2,133.6
	h-2.8V124h2.8V133.6z"/>
<path class="st4" d="M192.2,128.8c0,3.1-1.8,5.1-4.7,5.1c-2.9,0-4.7-1.9-4.7-5.1c0-3.1,1.8-5.1,4.7-5.1
	C190.5,123.7,192.2,125.6,192.2,128.8z M185.8,128.8c0,2.1,0.6,3,1.7,3s1.7-0.9,1.7-3c0-2.1-0.6-3-1.7-3S185.8,126.7,185.8,128.8z"
	/>
<path class="st4" d="M202.2,126.6v7h-2.8v-6.5c0-1-0.3-1.3-0.9-1.3c-0.6,0-1.1,0.4-1.7,1.2v6.5h-2.9V124h2.5l0.2,1.1
	c0.8-0.9,1.7-1.4,2.9-1.4C201.2,123.7,202.2,124.8,202.2,126.6z"/>
<path class="st4" d="M212.6,132l-0.6,1.9c-1.1-0.1-1.9-0.4-2.3-1.4c-0.7,1-1.8,1.4-2.9,1.4c-1.9,0-3.1-1.2-3.1-3
	c0-2.1,1.6-3.2,4.5-3.2h1v-0.4c0-1.1-0.4-1.5-1.6-1.5c-0.6,0-1.6,0.2-2.5,0.5l-0.6-1.9c1.2-0.4,2.5-0.7,3.6-0.7c2.8,0,4,1.2,4,3.4
	v3.7C211.9,131.6,212.1,131.8,212.6,132z M209.1,131v-1.7h-0.7c-1.3,0-1.9,0.4-1.9,1.4c0,0.8,0.4,1.2,1.1,1.2
	C208.3,131.9,208.8,131.5,209.1,131z"/>
<path class="st4" d="M214.1,131.2v-10.9l2.8-0.3v11.1c0,0.4,0.1,0.6,0.5,0.6c0.2,0,0.3,0,0.5-0.1l0.6,2c-0.4,0.2-1,0.3-1.7,0.3
	C215.1,133.9,214.1,132.9,214.1,131.2z"/>
<path class="st4" d="M222.6,120.6c0,0.9-0.7,1.6-1.7,1.6s-1.7-0.7-1.7-1.6s0.7-1.6,1.7-1.6S222.6,119.7,222.6,120.6z M222.4,133.6
	h-2.8V124h2.8V133.6z"/>
<path class="st4" d="M230.6,133.1c-0.7,0.5-1.7,0.8-2.6,0.8c-2.1,0-3.1-1.2-3.1-3.5V126h-1.4v-2h1.4V122l2.9-0.3v2.4h2.2l-0.3,2
	h-1.9v4.4c0,0.9,0.3,1.2,0.9,1.2c0.3,0,0.6-0.1,1-0.3L230.6,133.1z"/>
<path class="st4" d="M234.6,120.6c0,0.9-0.7,1.6-1.7,1.6s-1.7-0.7-1.7-1.6s0.7-1.6,1.7-1.6S234.6,119.7,234.6,120.6z M234.4,133.6
	h-2.9V124h2.9V133.6z"/>
<path class="st4" d="M244.9,129.6H239c0.2,1.7,1,2.2,2.2,2.2c0.8,0,1.5-0.3,2.3-0.9l1.2,1.6c-0.9,0.8-2.2,1.3-3.7,1.3
	c-3.2,0-4.8-2.1-4.8-5c0-2.9,1.6-5.1,4.5-5.1c2.7,0,4.4,1.8,4.4,4.9C245,128.9,244.9,129.4,244.9,129.6z M242.2,127.8
	c0-1.3-0.4-2.2-1.6-2.2c-0.9,0-1.5,0.6-1.6,2.3h3.2V127.8z"/>
<path class="st4" d="M253.5,124.9l-1,1.6c-0.7-0.5-1.5-0.7-2.4-0.7c-0.8,0-1.1,0.3-1.1,0.7c0,0.5,0.2,0.7,2,1.2
	c1.9,0.5,2.9,1.3,2.9,3c0,2-1.9,3.1-4.2,3.1c-1.7,0-3.1-0.6-4-1.4l1.4-1.6c0.7,0.6,1.6,0.9,2.5,0.9c0.9,0,1.4-0.3,1.4-0.9
	c0-0.6-0.3-0.9-2-1.3c-1.9-0.5-2.8-1.5-2.8-3c0-1.6,1.5-2.9,3.9-2.9C251.4,123.7,252.6,124.2,253.5,124.9z"/>
<path class="st4" d="M106.4,216.1l-1,1.6c-0.7-0.5-1.5-0.7-2.4-0.7c-0.8,0-1.2,0.3-1.2,0.7c0,0.5,0.2,0.7,2,1.2c1.9,0.5,3,1.3,3,3
	c0,2-1.9,3.1-4.2,3.1c-1.7,0-3.1-0.6-4-1.4l1.4-1.6c0.7,0.6,1.6,0.9,2.5,0.9c0.9,0,1.4-0.3,1.4-0.9c0-0.6-0.3-0.9-2-1.3
	c-1.9-0.5-2.8-1.5-2.8-3c0-1.6,1.5-2.9,3.9-2.9C104.3,215,105.5,215.4,106.4,216.1z"/>
<path class="st4" d="M111.3,211.9c0,0.9-0.7,1.6-1.7,1.6s-1.7-0.7-1.7-1.6s0.7-1.6,1.7-1.6C110.6,210.2,111.3,210.9,111.3,211.9z
	 M111.1,224.8h-2.8v-9.6h2.8V224.8z"/>
<path class="st4" d="M121.5,217.9v7h-2.8v-6.5c0-1-0.3-1.3-0.9-1.3c-0.6,0-1.2,0.4-1.7,1.2v6.5h-2.8v-9.6h2.5l0.2,1.1
	c0.8-0.9,1.7-1.4,2.9-1.4C120.5,215,121.5,216,121.5,217.9z"/>
<path class="st4" d="M132.5,215.8c-0.7,0.3-1.6,0.4-2.8,0.4c1.2,0.5,1.8,1.2,1.8,2.5c0,1.9-1.5,3.2-4,3.2c-0.4,0-0.8,0-1.1-0.1
	c-0.2,0.1-0.3,0.3-0.3,0.5c0,0.3,0.1,0.6,1,0.6h1.4c2.2,0,3.7,1.2,3.7,2.8c0,2-1.7,3.2-5,3.2c-3.6,0-4.6-1.2-4.6-3.1h2.6
	c0,0.8,0.4,1.2,2.1,1.2c1.7,0,2.1-0.5,2.1-1.1c0-0.6-0.4-0.9-1.4-0.9h-1.4c-2.1,0-2.9-0.9-2.9-1.9c0-0.7,0.4-1.4,1.1-1.8
	c-1.2-0.6-1.7-1.5-1.7-2.7c0-2.2,1.7-3.5,4.2-3.5c2.1,0.1,3.3-0.6,4.5-1.2L132.5,215.8z M125.9,218.4c0,1,0.6,1.6,1.4,1.6
	c0.9,0,1.4-0.6,1.4-1.7c0-1.1-0.5-1.6-1.4-1.6C126.5,216.9,125.9,217.4,125.9,218.4z"/>
<path class="st4" d="M133.5,222.4v-10.9l2.8-0.3v11.1c0,0.4,0.1,0.6,0.5,0.6c0.2,0,0.3,0,0.5-0.1l0.6,2c-0.4,0.2-1,0.3-1.7,0.3
	C134.5,225.1,133.5,224.2,133.5,222.4z"/>
<path class="st4" d="M147,220.9h-5.9c0.2,1.7,1,2.2,2.2,2.2c0.8,0,1.5-0.3,2.3-0.9l1.2,1.6c-0.9,0.8-2.2,1.3-3.7,1.3
	c-3.2,0-4.8-2.1-4.8-5c0-2.9,1.6-5.1,4.5-5.1c2.7,0,4.4,1.8,4.4,4.9C147.1,220.2,147.1,220.6,147,220.9z M144.3,219.1
	c0-1.3-0.4-2.2-1.6-2.2c-0.9,0-1.5,0.6-1.6,2.3h3.2V219.1z"/>
<path class="st4" d="M160.4,216.1l-1.2,1.7c-0.6-0.5-1.2-0.7-1.8-0.7c-1.2,0-1.9,0.8-1.9,3c0,2.1,0.8,2.8,1.9,2.8
	c0.7,0,1.2-0.2,1.8-0.6l1.2,1.8c-0.9,0.7-1.9,1.1-3.2,1.1c-2.9,0-4.7-2-4.7-5c0-3,1.8-5.2,4.7-5.2
	C158.5,215,159.5,215.4,160.4,216.1z"/>
<path class="st4" d="M169.7,224.8h-2.5l-0.1-1.2c-0.7,1-1.6,1.5-2.9,1.5c-1.8,0-2.7-1.1-2.7-3v-6.9h2.8v6.5c0,1,0.3,1.3,0.9,1.3
	c0.6,0,1.1-0.4,1.5-1.1v-6.6h2.8L169.7,224.8L169.7,224.8z"/>
<path class="st4" d="M178.8,216.1l-1,1.6c-0.7-0.5-1.5-0.7-2.4-0.7c-0.8,0-1.1,0.3-1.1,0.7c0,0.5,0.2,0.7,2,1.2c1.9,0.5,3,1.3,3,3
	c0,2-1.9,3.1-4.2,3.1c-1.7,0-3.1-0.6-4-1.4l1.4-1.6c0.7,0.6,1.6,0.9,2.5,0.9c0.9,0,1.4-0.3,1.4-0.9c0-0.6-0.3-0.9-2-1.3
	c-1.9-0.5-2.8-1.5-2.8-3c0-1.6,1.5-2.9,3.9-2.9C176.7,215,177.9,215.4,178.8,216.1z"/>
<path class="st4" d="M186.6,224.4c-0.7,0.5-1.7,0.8-2.6,0.8c-2.1,0-3.1-1.2-3.1-3.5v-4.4h-1.4v-2h1.4v-2.1l2.9-0.3v2.4h2.2l-0.3,2
	h-1.9v4.4c0,0.9,0.3,1.2,0.9,1.2c0.3,0,0.6-0.1,1-0.3L186.6,224.4z"/>
<path class="st4" d="M196.2,220.1c0,3.1-1.8,5.1-4.7,5.1c-2.9,0-4.7-1.9-4.7-5.1c0-3.1,1.8-5.1,4.7-5.1
	C194.4,215,196.2,216.9,196.2,220.1z M189.8,220.1c0,2.1,0.6,3,1.7,3s1.7-0.9,1.7-3c0-2.1-0.6-3-1.7-3S189.8,218,189.8,220.1z"/>
<path class="st4" d="M211,217.9v7h-2.9v-6.5c0-1-0.4-1.3-0.8-1.3c-0.6,0-1,0.4-1.5,1.2v6.5H203v-6.5c0-1-0.4-1.3-0.8-1.3
	c-0.6,0-1,0.4-1.5,1.2v6.5h-2.8v-9.6h2.5l0.2,1.1c0.7-0.9,1.6-1.4,2.8-1.4c1.1,0,1.9,0.5,2.2,1.5c0.8-1,1.6-1.5,2.9-1.5
	C209.9,215,211,216,211,217.9z"/>
<path class="st4" d="M220.5,211.9c0,0.9-0.7,1.6-1.7,1.6s-1.7-0.7-1.7-1.6s0.7-1.6,1.7-1.6C219.8,210.2,220.5,210.9,220.5,211.9z
	 M220.2,224.8h-2.9v-9.6h2.9V224.8z"/>
<path class="st4" d="M230.7,217.9v7h-2.8v-6.5c0-1-0.3-1.3-0.9-1.3c-0.6,0-1.1,0.4-1.7,1.2v6.5h-2.9v-9.6h2.5l0.2,1.1
	c0.8-0.9,1.7-1.4,2.9-1.4C229.7,215,230.7,216,230.7,217.9z"/>
<path class="st4" d="M238.8,224.4c-0.7,0.5-1.7,0.8-2.6,0.8c-2.1,0-3.1-1.2-3.1-3.5v-4.4h-1.4v-2h1.4v-2.1l2.9-0.3v2.4h2.2l-0.3,2
	H236v4.4c0,0.9,0.3,1.2,0.9,1.2c0.3,0,0.6-0.1,1-0.3L238.8,224.4z"/>
<path class="st4" d="M247.9,220.9H242c0.2,1.7,1,2.2,2.2,2.2c0.8,0,1.5-0.3,2.3-0.9l1.2,1.6c-0.9,0.8-2.2,1.3-3.7,1.3
	c-3.2,0-4.8-2.1-4.8-5c0-2.9,1.6-5.1,4.5-5.1c2.7,0,4.4,1.8,4.4,4.9C247.9,220.2,247.9,220.6,247.9,220.9z M245.1,219.1
	c0-1.3-0.4-2.2-1.6-2.2c-0.9,0-1.5,0.6-1.6,2.3h3.2V219.1z"/>
<path class="st4" d="M255.7,215.1l-0.4,2.8c-0.3-0.1-0.5-0.1-0.9-0.1c-1.2,0-1.7,0.9-2,2.3v4.8h-2.8v-9.6h2.5l0.2,1.8
	c0.4-1.3,1.4-2.1,2.5-2.1C255.1,215,255.4,215,255.7,215.1z"/>
<path class="st4" d="M260,214.5v0.7h2.2l-0.3,2H260v7.6h-2.8v-7.6h-1.4v-2h1.4v-0.9c0-1.8,1.2-3.3,3.6-3.3c1,0,1.9,0.2,2.6,0.6
	l-0.8,1.9c-0.5-0.3-1.1-0.4-1.5-0.4C260.3,213.3,260,213.6,260,214.5z"/>
<path class="st4" d="M271.4,223.2l-0.6,1.9c-1.1-0.1-1.9-0.4-2.3-1.4c-0.7,1-1.8,1.4-2.9,1.4c-1.9,0-3.1-1.2-3.1-3
	c0-2.1,1.6-3.2,4.5-3.2h1v-0.4c0-1.1-0.5-1.5-1.6-1.5c-0.6,0-1.6,0.2-2.5,0.5l-0.7-1.9c1.2-0.4,2.5-0.7,3.6-0.7c2.8,0,4,1.2,4,3.4
	v3.7C270.8,222.8,271,223.1,271.4,223.2z M268,222.2v-1.7h-0.7c-1.3,0-1.9,0.4-1.9,1.4c0,0.8,0.4,1.2,1.1,1.2
	C267.1,223.1,267.6,222.8,268,222.2z"/>
<path class="st4" d="M280.5,216.1l-1.2,1.7c-0.6-0.5-1.2-0.7-1.8-0.7c-1.2,0-1.9,0.8-1.9,3c0,2.1,0.8,2.8,1.9,2.8
	c0.7,0,1.1-0.2,1.8-0.6l1.2,1.8c-0.9,0.7-1.9,1.1-3.2,1.1c-2.9,0-4.7-2-4.7-5c0-3,1.8-5.2,4.7-5.2
	C278.5,215,279.5,215.4,280.5,216.1z"/>
<path class="st4" d="M289.8,220.9h-5.9c0.2,1.7,1,2.2,2.2,2.2c0.8,0,1.5-0.3,2.3-0.9l1.2,1.6c-0.9,0.8-2.2,1.3-3.7,1.3
	c-3.2,0-4.8-2.1-4.8-5c0-2.9,1.6-5.1,4.5-5.1c2.7,0,4.4,1.8,4.4,4.9C289.8,220.2,289.8,220.6,289.8,220.9z M287,219.1
	c0-1.3-0.4-2.2-1.5-2.2c-1,0-1.5,0.6-1.6,2.3h3.2V219.1z"/>
<path class="st6" d="M112.5,311.6c0,3-1.4,5.1-3.8,5.1c-0.9,0-1.7-0.3-2.3-1v4.4l-2.9,0.3v-13.5h2.5l0.1,1.1c0.8-1,1.8-1.4,2.7-1.4
	C111.4,306.6,112.5,308.6,112.5,311.6z M109.5,311.7c0-2.4-0.6-3-1.6-3c-0.6,0-1.2,0.4-1.6,1.1v4c0.4,0.6,0.9,0.9,1.5,0.9
	C108.9,314.7,109.5,313.8,109.5,311.7z"/>
<path class="st6" d="M120.4,306.8l-0.4,2.8c-0.3-0.1-0.5-0.1-0.9-0.1c-1.2,0-1.7,0.9-2,2.3v4.8h-2.8v-9.6h2.5l0.2,1.8
	c0.4-1.3,1.4-2.1,2.5-2.1C119.8,306.6,120.1,306.7,120.4,306.8z"/>
<path class="st6" d="M130.1,311.7c0,3.1-1.8,5.1-4.7,5.1c-2.9,0-4.7-1.9-4.7-5.1c0-3.1,1.8-5.1,4.7-5.1
	C128.4,306.6,130.1,308.5,130.1,311.7z M123.7,311.7c0,2.1,0.6,3,1.7,3s1.7-0.9,1.7-3c0-2.1-0.6-3-1.7-3S123.7,309.6,123.7,311.7z"
	/>
<path class="st6" d="M136.5,316.5h-3.4l-3.1-9.6h3.1l1.7,7.4l1.8-7.4h2.9L136.5,316.5z"/>
<path class="st6" d="M143.6,303.5c0,0.9-0.7,1.6-1.7,1.6c-1,0-1.7-0.7-1.7-1.6c0-0.9,0.7-1.6,1.7-1.6
	C142.9,301.9,143.6,302.6,143.6,303.5z M143.4,316.5h-2.8v-9.6h2.8V316.5z"/>
<path class="st6" d="M154.2,303.1v13.4h-2.5l-0.1-1.1c-0.5,0.8-1.4,1.4-2.7,1.4c-2.4,0-3.6-2-3.6-5.1c0-3,1.5-5.1,4-5.1
	c0.9,0,1.6,0.3,2.2,0.9v-4.7L154.2,303.1z M151.4,313.6v-4.1c-0.4-0.5-0.9-0.8-1.5-0.8c-1,0-1.8,0.9-1.8,3c0,2.4,0.6,3,1.6,3
	C150.4,314.7,150.9,314.3,151.4,313.6z"/>
<path class="st6" d="M164.7,312.5h-5.9c0.2,1.7,1,2.2,2.2,2.2c0.8,0,1.5-0.3,2.3-0.9l1.2,1.6c-1,0.8-2.2,1.3-3.7,1.3
	c-3.2,0-4.8-2-4.8-5c0-2.9,1.6-5.1,4.5-5.1c2.7,0,4.4,1.8,4.4,4.9C164.8,311.8,164.7,312.2,164.7,312.5z M162,310.7
	c0-1.3-0.4-2.2-1.6-2.2c-0.9,0-1.5,0.6-1.6,2.3h3.2V310.7z"/>
<path class="st6" d="M172.5,306.8l-0.5,2.8c-0.3-0.1-0.5-0.1-0.9-0.1c-1.2,0-1.7,0.9-2,2.3v4.8h-2.8v-9.6h2.5l0.2,1.8
	c0.4-1.3,1.4-2.1,2.5-2.1C171.9,306.6,172.2,306.7,172.5,306.8z"/>
<path class="st6" d="M173.5,309.7h5.7v2.2h-5.7C173.5,311.9,173.5,309.7,173.5,309.7z"/>
<path class="st6" d="M190.1,311.7c0,3-1.4,5.1-3.8,5.1c-1.1,0-1.9-0.5-2.5-1.2l-0.1,0.9h-2.5v-13.4l2.9-0.3v5.1
	c0.6-0.8,1.5-1.3,2.5-1.3C188.8,306.6,190.1,308.5,190.1,311.7z M187.1,311.7c0-2.4-0.6-3-1.5-3c-0.7,0-1.2,0.4-1.6,1.1v4
	c0.4,0.6,0.9,0.9,1.5,0.9C186.4,314.7,187.1,313.9,187.1,311.7z"/>
<path class="st6" d="M200.7,311.7c0,3.1-1.8,5.1-4.7,5.1c-2.9,0-4.7-1.9-4.7-5.1c0-3.1,1.8-5.1,4.7-5.1
	C198.9,306.6,200.7,308.5,200.7,311.7z M194.3,311.7c0,2.1,0.6,3,1.7,3s1.7-0.9,1.7-3c0-2.1-0.6-3-1.7-3S194.3,309.6,194.3,311.7z"
	/>
<path class="st6" d="M210.4,316.5H208l-0.1-1.2c-0.7,1-1.6,1.5-2.9,1.5c-1.8,0-2.7-1.1-2.7-3v-6.9h2.8v6.5c0,1,0.3,1.3,0.9,1.3
	s1.1-0.4,1.6-1.1v-6.6h2.8L210.4,316.5L210.4,316.5z"/>
<path class="st6" d="M220.9,309.5v7h-2.8V310c0-1-0.3-1.3-0.9-1.3c-0.6,0-1.1,0.5-1.7,1.2v6.5h-2.9v-9.6h2.5l0.2,1.1
	c0.8-0.9,1.7-1.4,2.9-1.4C219.9,306.6,220.9,307.6,220.9,309.5z"/>
<path class="st6" d="M231.6,303.1v13.4h-2.5l-0.1-1.1c-0.5,0.8-1.4,1.4-2.7,1.4c-2.4,0-3.6-2-3.6-5.1c0-3,1.5-5.1,4-5.1
	c0.9,0,1.6,0.3,2.2,0.9v-4.7L231.6,303.1z M228.8,313.6v-4.1c-0.4-0.5-0.9-0.8-1.5-0.8c-1,0-1.8,0.9-1.8,3c0,2.4,0.6,3,1.6,3
	C227.8,314.7,228.3,314.3,228.8,313.6z"/>
<path class="st6" d="M245.5,307.8l-1.2,1.7c-0.6-0.5-1.2-0.7-1.8-0.7c-1.2,0-1.9,0.8-1.9,3c0,2.1,0.8,2.8,1.9,2.8
	c0.7,0,1.1-0.2,1.8-0.6l1.2,1.8c-0.9,0.7-1.9,1.1-3.2,1.1c-2.9,0-4.7-2-4.7-5c0-3,1.8-5.2,4.7-5.2
	C243.6,306.6,244.6,307,245.5,307.8z"/>
<path class="st6" d="M246.7,314v-10.9l2.8-0.3v11.1c0,0.4,0.1,0.6,0.5,0.6c0.2,0,0.3,0,0.5-0.1l0.6,2c-0.4,0.2-1,0.3-1.7,0.3
	C247.6,316.8,246.7,315.8,246.7,314z"/>
<path class="st6" d="M255.2,303.5c0,0.9-0.7,1.6-1.7,1.6s-1.7-0.7-1.7-1.6c0-0.9,0.7-1.6,1.7-1.6
	C254.5,301.9,255.2,302.6,255.2,303.5z M254.9,316.5h-2.9v-9.6h2.9V316.5z"/>
<path class="st6" d="M265.5,312.5h-5.9c0.2,1.7,1,2.2,2.2,2.2c0.8,0,1.5-0.3,2.3-0.9l1.2,1.6c-0.9,0.8-2.2,1.3-3.7,1.3
	c-3.2,0-4.8-2-4.8-5c0-2.9,1.6-5.1,4.5-5.1c2.7,0,4.4,1.8,4.4,4.9C265.5,311.8,265.5,312.2,265.5,312.5z M262.7,310.7
	c0-1.3-0.4-2.2-1.6-2.2c-0.9,0-1.5,0.6-1.6,2.3h3.2V310.7z"/>
<path class="st6" d="M275.4,309.5v7h-2.8V310c0-1-0.3-1.3-0.9-1.3c-0.6,0-1.2,0.5-1.7,1.2v6.5h-2.8v-9.6h2.5l0.2,1.1
	c0.8-0.9,1.7-1.4,2.9-1.4C274.4,306.6,275.4,307.6,275.4,309.5z"/>
<path class="st6" d="M283.5,316c-0.7,0.5-1.7,0.8-2.6,0.8c-2.1,0-3.1-1.2-3.1-3.5v-4.4h-1.3v-2h1.3v-2.1l2.9-0.3v2.4h2.2l-0.3,2
	h-1.9v4.4c0,0.9,0.3,1.2,0.9,1.2c0.3,0,0.7-0.1,1-0.3L283.5,316z"/>
<path class="st4" d="M304.8,263.2L304,264c-0.5-0.4-0.9-0.6-1.5-0.6c-2,0-2.6,2.4-2.6,4c0,1.4,0.6,2,1.6,2c0.7,0,1.2-0.2,1.8-0.6
	l0.6,1c-0.8,0.6-1.6,0.8-2.5,0.8c-1.9,0-3-1.2-3-3.2c0-2.1,1.1-5,4-5C303.4,262.3,304.1,262.6,304.8,263.2z"/>
<path class="st4" d="M312.5,265.6c0,1.9-1,5-4.1,5c-2,0-3-1.3-3-3.3c0-2,1-5,4.1-5C311.5,262.3,312.5,263.6,312.5,265.6z
	 M306.8,267.5c0,1.4,0.6,2,1.6,2c2,0,2.6-2.5,2.6-4c0-1.4-0.6-2-1.6-2C307.4,263.4,306.8,266,306.8,267.5z"/>
<path class="st4" d="M320,270.4h-1.2l0.1-1.5c-0.7,1-1.5,1.6-2.6,1.6c-1.4,0-2.1-0.9-1.9-2.5l0.8-5.6h1.4l-0.8,5.6
	c-0.1,1.1,0.1,1.4,0.8,1.4c1,0,1.8-0.9,2.4-1.9l0.7-5.1h1.4L320,270.4z"/>
<path class="st4" d="M329.9,265.4c0,2.2-1.1,5.2-4.2,5.2c-0.5,0-1-0.1-1.5-0.3l-0.5,3.1l-1.4,0.2l1.6-11.1h1.2l0,1
	c0.8-0.9,1.6-1.2,2.4-1.2C329,262.3,329.9,263.4,329.9,265.4z M325,264.5l-0.6,4.7c0.5,0.2,0.8,0.2,1.4,0.2c2,0,2.7-2.4,2.7-4.2
	c0-1.4-0.6-1.9-1.4-1.9C326.2,263.4,325.5,264,325,264.5z"/>
<path class="st4" d="M333.1,268.9c0,0.4,0,0.6,0.4,0.6c0.2,0,0.4,0,0.5-0.1l0.3,1c-0.4,0.2-0.8,0.3-1.1,0.3c-1,0-1.6-0.6-1.4-2
	l1.3-9.3l1.4-0.2L333.1,268.9z"/>
<path class="st4" d="M337.1,267.5c0,1.4,0.7,2,1.7,2c0.7,0,1.4-0.2,2.1-0.7l0.6,0.9c-0.9,0.6-1.8,1-2.8,1c-1.9,0-3-1.2-3-3.2
	c0-2.2,1.1-5,4.1-5c1.7,0,2.5,1,2.5,2C342.2,266.5,339.8,267.2,337.1,267.5z M340.8,264.4c0-0.4-0.2-1-1.1-1c-1.6,0-2.3,1.6-2.5,3
	C339.4,266.2,340.8,265.7,340.8,264.4z"/>
<path class="st4" d="M351.2,259.3l-1.6,11.1h-1.2l0-1.3c-0.6,0.9-1.4,1.5-2.4,1.5c-1.6,0-2.5-1.2-2.5-3.1c0-2,1-5.1,3.7-5.1
	c0.9,0,1.6,0.4,2,1l0.6-4.1L351.2,259.3z M345,267.5c0,1.3,0.5,1.9,1.3,1.9c1,0,1.6-0.7,2.3-1.8l0.5-3.3c-0.4-0.6-0.9-1-1.6-1
	C345.5,263.4,345,266,345,267.5z"/>
<path class="st4" d="M358,268.3c-0.1,0.8,0.1,1.1,0.7,1.1c0.4,0,0.7-0.1,1.1-0.4l0.5,1c-0.6,0.4-1.1,0.5-1.8,0.5
	c-1.4,0-2-0.8-1.8-2.3l0.7-4.7H356l0.1-1.1h1.4l0.5-1.8l1.1-0.1l-0.3,2h1.9l-0.3,1.1h-1.7L358,268.3z"/>
<path class="st4" d="M368.5,265.6c0,1.9-1,5-4.1,5c-2,0-3-1.3-3-3.3c0-2,1-5,4.1-5C367.5,262.3,368.5,263.6,368.5,265.6z
	 M362.9,267.5c0,1.4,0.6,2,1.6,2c2,0,2.6-2.5,2.6-4c0-1.4-0.6-2-1.6-2C363.4,263.4,362.9,266,362.9,267.5z"/>
<path class="st4" d="M305.6,285.1c0,1.9-1,5-4.1,5c-2,0-3-1.3-3-3.3c0-2,1-5,4.1-5C304.5,281.8,305.6,283.1,305.6,285.1z M299.9,287
	c0,1.4,0.6,2,1.6,2c2.1,0,2.6-2.5,2.6-4c0-1.4-0.6-2-1.6-2C300.5,282.9,299.9,285.5,299.9,287z"/>
<path class="st4" d="M314,284.4l-0.8,5.5h-1.4l0.8-5.5c0.1-1.1-0.2-1.4-0.8-1.4c-1,0-1.9,1.1-2.5,2.2l-0.6,4.7h-1.4l1.1-7.9h1.2
	l-0.1,1.5c0.7-1,1.6-1.7,2.8-1.7C313.4,281.8,314.2,282.8,314,284.4z"/>
<path class="st4" d="M317.3,287c0,1.4,0.7,2,1.7,2c0.7,0,1.4-0.2,2.1-0.7l0.6,0.9c-0.9,0.6-1.8,1-2.8,1c-1.9,0-3-1.2-3-3.2
	c0-2.2,1.1-5,4.1-5c1.7,0,2.5,1,2.5,2C322.4,286,320,286.7,317.3,287z M321,283.9c0-0.4-0.2-1-1.1-1c-1.6,0-2.3,1.6-2.5,3
	C319.6,285.7,321,285.2,321,283.9z"/>
<path class="st4" d="M334.7,284.9c0,2.2-1.1,5.2-4.2,5.2c-0.5,0-1-0.1-1.5-0.2l-0.5,3.1l-1.4,0.2l1.6-11.1h1.2l0,1
	c0.8-0.9,1.6-1.2,2.4-1.2C333.8,281.8,334.7,282.9,334.7,284.9z M329.8,284l-0.6,4.7c0.5,0.2,0.8,0.2,1.4,0.2c2,0,2.7-2.4,2.7-4.2
	c0-1.4-0.6-1.9-1.4-1.9C331,282.9,330.4,283.5,329.8,284z"/>
<path class="st4" d="M341.7,281.9l-0.4,1.3c-0.2-0.1-0.4-0.1-0.6-0.1c-1,0-1.7,0.9-2.3,2.5l-0.6,4.2h-1.4l1.1-7.9h1.2l-0.1,1.6
	c0.6-1.2,1.4-1.8,2.3-1.8C341.2,281.8,341.4,281.9,341.7,281.9z"/>
<path class="st4" d="M349,285.1c0,1.9-1,5-4.1,5c-2,0-3-1.3-3-3.3c0-2,1-5,4.1-5C347.9,281.8,349,283.1,349,285.1z M343.3,287
	c0,1.4,0.6,2,1.6,2c2,0,2.6-2.5,2.6-4c0-1.4-0.6-2-1.6-2C343.9,282.9,343.3,285.5,343.3,287z"/>
<path class="st4" d="M353.4,289.9h-1.6l-1.6-7.9h1.5l1.1,6.7l2.9-6.7h1.5L353.4,289.9z"/>
<path class="st4" d="M359,289.9h-1.4l1.1-7.9h1.4L359,289.9z M360.8,279.2c-0.1,0.5-0.5,0.9-1,0.9c-0.6,0-0.9-0.5-0.9-1
	c0.1-0.5,0.5-0.9,1-0.9C360.5,278.2,360.8,278.6,360.8,279.2z"/>
<path class="st4" d="M369.4,278.8l-1.6,11.1h-1.2l0-1.3c-0.6,0.9-1.4,1.5-2.4,1.5c-1.6,0-2.5-1.2-2.5-3.1c0-2,1-5.1,3.7-5.1
	c0.9,0,1.6,0.4,2,1l0.6-4.1L369.4,278.8z M363.2,287c0,1.3,0.5,1.9,1.3,1.9c1,0,1.6-0.7,2.3-1.8l0.5-3.3c-0.4-0.6-0.9-1-1.6-1
	C363.8,282.9,363.2,285.5,363.2,287z"/>
<path class="st4" d="M372,287c0,1.4,0.7,2,1.7,2c0.7,0,1.4-0.2,2.1-0.7l0.6,0.9c-0.9,0.6-1.8,1-2.8,1c-1.9,0-3-1.2-3-3.2
	c0-2.2,1.1-5,4.1-5c1.7,0,2.5,1,2.5,2C377.2,286,374.8,286.7,372,287z M375.7,283.9c0-0.4-0.2-1-1.1-1c-1.6,0-2.3,1.6-2.5,3
	C374.4,285.7,375.7,285.2,375.7,283.9z"/>
<path class="st4" d="M383.8,281.9l-0.4,1.3c-0.2-0.1-0.4-0.1-0.6-0.1c-1,0-1.7,0.9-2.3,2.5l-0.6,4.2h-1.4l1.1-7.9h1.2l-0.1,1.6
	c0.6-1.2,1.4-1.8,2.3-1.8C383.3,281.8,383.5,281.9,383.8,281.9z"/>
</svg>
